<svg xmlns="http://www.w3.org/2000/svg" viewBox="0 0 84.2 89.48"><title>ux_2x</title><g id="Layer_2" data-name="Layer 2"><g id="Layer_1-2" data-name="Layer 1"><circle cx="54.5" cy="29.7" r="29.7" style="fill:#b29d5b;opacity:0.15"/><rect x="12.35" y="28.46" width="44.92" height="2.25" style="fill:#474747"/><rect x="12.35" y="36.69" width="44.92" height="2.25" style="fill:#474747"/><path d="M35.94,47.17H69.63V20.22H0v27H7.11V73.75H0V89.48H15.72V73.75H9.36V47.17H33.69V73.75H27V89.48H42.68V83.11H53.91v6.37H69.63V73.75H53.91v7.12H42.68V73.75H35.94V62.15h18v6.36H69.63V52.79H53.91V59.9h-18ZM56.15,76H67.38V87.23H56.15Zm0-21H67.38V66.27H56.15ZM13.48,76V87.23H2.25V76Zm27,0V87.23H29.2V76ZM2.25,44.93V22.47H67.38V44.93Z" style="fill:#474747"/></g></g></svg>