<svg xmlns="http://www.w3.org/2000/svg" viewBox="0 0 84.76 74.26"><title>visual-design_2x</title><g id="Layer_2" data-name="Layer 2"><g id="Layer_1-2" data-name="Layer 1"><circle cx="55.06" cy="29.7" r="29.7" style="fill:#b29d5b;opacity:0.15"/><path d="M79.41,48.73A25.51,25.51,0,0,0,41,26.67l-.1.06-.06-.1L28,4.28,0,52.73H28.67v.1a25.53,25.53,0,0,0,50.73-4.1ZM4.14,50.34l.1-.17L28,9.06l.1.17L51.81,50.34ZM53.88,71.87a23.11,23.11,0,0,1-22.76-19l0-.14H56L42.13,28.8l.1-.06A23.14,23.14,0,1,1,53.88,71.87Z" style="fill:#474747"/></g></g></svg>