<svg xmlns="http://www.w3.org/2000/svg" viewBox="0 0 86.8 90.38"><title>research_2x</title><g id="Layer_2" data-name="Layer 2"><g id="Layer_1-2" data-name="Layer 1"><circle cx="29.7" cy="29.7" r="29.7" style="fill:#b29d5b;opacity:0.15"/><path d="M79.87,64.44A18.16,18.16,0,1,0,61.71,82.6,18.15,18.15,0,0,0,79.87,64.44ZM61.72,80.28h0l-.29,0c-.43,0-.85,0-1.27-.06s-.86-.12-1.28-.19l-.25,0A15.84,15.84,0,0,1,45.88,64.44c0-.39,0-.77.06-1.16h0v-.15a2.48,2.48,0,0,1,0-.27.68.68,0,0,1,0-.14c.05-.47.12-.93.21-1.39a1.6,1.6,0,0,1,.05-.21c.09-.43.2-.85.32-1.27,0-.08,0-.16.07-.23q.21-.63.45-1.23l.08-.18c.19-.44.39-.87.62-1.29l0,0a15.71,15.71,0,0,1,13.85-8.27h.06a15.83,15.83,0,0,1,4.62,31c-.15,0-.3.07-.45.12-.34.09-.68.18-1,.25s-.61.1-.91.14-.42.08-.63.1C62.79,80.25,62.26,80.28,61.72,80.28Z" style="fill:#474747"/><path d="M66.89,18.51H14.18V90.38l47-.07.07-2.62-44.47.07V21.13H64.27V42a20.82,20.82,0,0,1,2.62.47Z" style="fill:#474747"/><rect x="21.74" y="28.39" width="37.66" height="2.62" style="fill:#474747"/><rect x="21.74" y="35.58" width="37.66" height="2.62" style="fill:#474747"/><rect x="21.74" y="42.92" width="18.79" height="2.62" style="fill:#474747"/><rect x="21.74" y="50.18" width="13.63" height="2.62" style="fill:#474747"/><rect x="79.75" y="77.54" width="3.24" height="12.12" transform="translate(-35.28 82.02) rotate(-45)" style="fill:#474747"/></g></g></svg>