<svg xmlns="http://www.w3.org/2000/svg" viewBox="0 0 89.95 87.17"><title>service-design_2x</title><g id="Layer_2" data-name="Layer 2"><g id="Layer_1-2" data-name="Layer 1"><circle cx="60.25" cy="29.7" r="29.7" style="fill:#b29d5b;opacity:0.15"/><path d="M60.25,38.12V64a10.48,10.48,0,0,1,2.24,0V38.12c-.37,0-.74.05-1.12.05S60.62,38.15,60.25,38.12Z" style="fill:#474747"/><path d="M49.77,75.58c0-.38,0-.76.06-1.13H23.14c0,.37.05.75.05,1.13s0,.75-.05,1.12H49.83C49.8,76.33,49.77,76,49.77,75.58Z" style="fill:#474747"/><path d="M23.19,26.58c0,.38,0,.75-.05,1.12H49.83c0-.37-.06-.74-.06-1.12s0-.76.06-1.13H23.14C23.17,25.82,23.19,26.2,23.19,26.58Z" style="fill:#474747"/><path d="M11.6,64a10.37,10.37,0,0,1,1.12.06V38.12c-.37,0-.74.05-1.12.05s-.76,0-1.13-.05V64A10.55,10.55,0,0,1,11.6,64Z" style="fill:#474747"/><path d="M11.6,38.17c.38,0,.75,0,1.12-.05A11.63,11.63,0,0,0,23.14,27.7c0-.37.05-.74.05-1.12s0-.76-.05-1.13A11.6,11.6,0,1,0,10.47,38.12C10.84,38.15,11.22,38.17,11.6,38.17ZM21,26.58a9.35,9.35,0,1,1-9.35-9.35A9.37,9.37,0,0,1,21,26.58Z" style="fill:#474747"/><path d="M49.77,26.58c0,.38,0,.75.06,1.12A11.63,11.63,0,0,0,60.25,38.12c.37,0,.74.05,1.12.05s.75,0,1.12-.05A11.6,11.6,0,1,0,49.83,25.45C49.8,25.82,49.77,26.2,49.77,26.58Zm20.95,0a9.35,9.35,0,1,1-9.35-9.35A9.36,9.36,0,0,1,70.72,26.58Z" style="fill:#474747"/><path d="M23.19,75.58c0-.38,0-.76-.05-1.13A11.62,11.62,0,0,0,12.72,64,10.37,10.37,0,0,0,11.6,64a10.55,10.55,0,0,0-1.13.06A11.59,11.59,0,1,0,23.14,76.7C23.17,76.33,23.19,76,23.19,75.58ZM11.6,84.93A9.35,9.35,0,1,1,21,75.58,9.36,9.36,0,0,1,11.6,84.93Z" style="fill:#474747"/><path d="M62.49,64a10.48,10.48,0,0,0-2.24,0A11.61,11.61,0,0,0,49.83,74.45c0,.37-.06.75-.06,1.13s0,.75.06,1.12A11.6,11.6,0,1,0,62.49,64ZM61.37,84.93a9.35,9.35,0,1,1,9.35-9.35A9.37,9.37,0,0,1,61.37,84.93Z" style="fill:#474747"/></g></g></svg>