<svg id="Layer_1" data-name="Layer 1" xmlns="http://www.w3.org/2000/svg" viewBox="0 0 750 500"><title>accenture</title><path d="M107.23,271.69c0,10.46-4.3,24.52-17,24.52-6.36,0-10.1-3.28-10.1-9.79,0-12.29,18-14.73,27.08-14.73m18.19,36V249.58c0-18.84-12.36-25.35-29.68-25.35-16.94,0-31,7.2-31,25.89H83.25c0-8.07,4.29-12.51,12.49-12.51,9.41,0,11.49,6.83,11.49,14.89v8.07c-18.51.51-45.59,3.09-45.59,27.6,0,13.88,11,21.42,24,21.42,8.93,0,17.15-2.92,21.28-11.32h.33v9.42h18.19m56.4-53.64h20.23c0-20.06-11.12-29.82-31-29.82-24.47,0-37.37,15.41-37.37,39,0,28.46,14.57,46.31,43.69,46.31a80.32,80.32,0,0,0,23.85-3.77V294.16a41.8,41.8,0,0,1-13.7,2c-21.64,0-33.61-15.77-33.61-36.32,0-9.77,3.59-22.28,15.6-22.28,9.93,0,12.33,8,12.33,16.44m73.1,0h20.24c0-20.06-11.16-29.82-31-29.82-24.51,0-37.37,15.41-37.37,39,0,28.46,14.56,46.31,43.7,46.31a80,80,0,0,0,23.82-3.77V294.16a41.57,41.57,0,0,1-13.7,2C239,296.21,227,280.44,227,259.89c0-9.77,3.63-22.28,15.61-22.28,9.94,0,12.35,8,12.35,16.44m74.58-3.61H299.68c.87-8.23,7.18-14.08,15.35-14.08,8.77,0,14.47,5.35,14.47,14.08m18,11.51v-4.64c0-19.88-10.28-33.08-31-33.08-24.32,0-35,15.26-35,38.4,0,26.88,12.16,47,41.12,47a72.61,72.61,0,0,0,22.78-3.26V293.14a48.69,48.69,0,0,1-15.56,3.07c-18.5,0-30.71-16.95-30.71-34.25H347.5m56.38,45.73h19.06V251.13c0-14-6.57-26.9-22.14-26.9-11.66,0-19.86,6.71-24.17,17.13h-.34V226.07H357.23v81.62h19.06v-35.3c0-11,5.49-30.34,19.15-30.34,2,0,4.11.16,5.53,1.56,3.22,3.07,2.91,13.51,2.91,17.47v46.61m58.59-68.38h24.24V226.07H462.47V199l-18.94,7.7v19.34h-16v13.24h16v47.81c0,17,8.31,22.47,25,22.47a94.48,94.48,0,0,0,15.55-1.36V294.84a37,37,0,0,1-8.73,1.36c-11.86,0-12.87-8.74-12.87-18.35V239.31m79.28,68.38h19V226.07h-19V261.4c0,11-5.49,30.34-19.23,30.34-1.85,0-4.12-.14-5.49-1.52-3.27-3.1-2.9-13.56-2.9-17.48V226.07h-19v56.61c0,14.06,6.46,26.91,22.09,26.91,11.51,0,19.9-6.87,24.21-17.12h.32v15.22m50.06-35.81c0-19.2,7.19-27.75,26.71-27.75v-19.9c-13.68,0-20.06,5.66-26.39,16.94h-.32v-15.1H572.75v81.62h19.06V271.88m78.56-21.44H640.54a15.22,15.22,0,0,1,15.4-14.08c8.77,0,14.43,5.35,14.43,14.08m18,11.51v-4.64c0-19.88-10.27-33.08-31-33.08-24.33,0-35,15.26-35,38.4,0,26.88,12.17,47,41.11,47a73.15,73.15,0,0,0,22.82-3.26V293.14a48.85,48.85,0,0,1-15.56,3.07C652.18,296.21,640,279.26,640,262h48.35" style="fill:#d2d2db"/><path d="M427.54,130.36v13.42s38,14.72,43.44,16.84l-43.44,16.74v13.4l59.18-24v-12.3l-59.18-24" style="fill:#d2d2db"/></svg>