<svg id="Layer_1" data-name="Layer 1" xmlns="http://www.w3.org/2000/svg" viewBox="0 0 750 500"><title>amazon</title><path d="M445.68,312.88c-34,25.14-83.46,38.53-126.11,38.53-59.76,0-113.34-22-154.14-58.73-3.09-2.88-.42-6.8,3.5-4.53C212.82,313.7,267,329,323.07,329a306.7,306.7,0,0,0,117.67-24.11c5.77-2.26,10.51,3.92,4.94,8Z" style="fill:#d2d2db;fill-rule:evenodd"/><path d="M459.9,296.6c-4.33-5.56-28.85-2.68-39.77-1.24-3.3.42-3.92-2.47-.82-4.53,19.57-13.81,51.51-9.69,55.22-5.15s-1,36.68-19.37,51.93c-2.88,2.26-5.56,1-4.33-2.06C455,325.24,464.23,302.37,459.9,296.6Z" style="fill:#d2d2db;fill-rule:evenodd"/><path d="M420.75,194v-13.4a3.13,3.13,0,0,1,3.29-3.29h59.77a3.43,3.43,0,0,1,3.5,3.29v11.34c0,1.85-1.65,4.32-4.54,8.45l-30.91,44.09c11.54-.2,23.7,1.45,34,7.22a6.14,6.14,0,0,1,3.09,5.15v14.22c0,2.06-2.06,4.32-4.33,3.09-18.34-9.69-42.86-10.72-63.06.2-2.06,1-4.33-1-4.33-3.09v-13.6c0-2.06,0-5.77,2.27-9.06l35.86-51.32H424.25a3.43,3.43,0,0,1-3.5-3.29ZM202.93,277H184.8a3.72,3.72,0,0,1-3.3-3.09V180.79a3.43,3.43,0,0,1,3.5-3.3h16.9a3.36,3.36,0,0,1,3.3,3.09v12.16h.41c4.33-11.75,12.78-17.31,23.9-17.31,11.34,0,18.55,5.56,23.5,17.31,4.32-11.75,14.42-17.31,25.14-17.31,7.62,0,15.86,3.09,21,10.3,5.77,7.83,4.53,19.17,4.53,29.27v58.93a3.43,3.43,0,0,1-3.5,3.3H282.27a3.54,3.54,0,0,1-3.3-3.3V224.48c0-3.92.41-13.81-.41-17.52-1.44-6.18-5.36-8-10.72-8a12.15,12.15,0,0,0-10.92,7.63c-1.85,4.74-1.65,12.57-1.65,17.93v49.45a3.43,3.43,0,0,1-3.5,3.3H233.64a3.54,3.54,0,0,1-3.3-3.3V224.48c0-10.31,1.65-25.76-11.13-25.76-13,0-12.57,14.83-12.57,25.76v49.45a3.62,3.62,0,0,1-3.71,3.09Zm335.9-101.59c27,0,41.62,23.08,41.62,52.55,0,28.44-16.07,51.1-41.62,51.1C512.45,279.08,498,256,498,227.15c-.2-29.05,14.43-51.72,40.81-51.72Zm0,19.17c-13.4,0-14.22,18.34-14.22,29.67s-.21,35.65,14,35.65c14,0,14.84-19.58,14.84-31.53,0-7.83-.42-17.31-2.68-24.73-2.06-6.59-6.18-9.06-11.95-9.06ZM615.28,277H597.14a3.53,3.53,0,0,1-3.29-3.29V180.38a3.56,3.56,0,0,1,3.5-3.09h16.9a3.51,3.51,0,0,1,3.29,2.67v14.22H618c5.15-12.77,12.16-18.75,24.73-18.75,8,0,16.07,2.89,21.22,10.92,4.74,7.42,4.74,20,4.74,29.06v58.73a3.39,3.39,0,0,1-3.5,2.88H647a3.72,3.72,0,0,1-3.29-2.88v-50.7c0-10.3,1.23-25.14-11.34-25.14-4.33,0-8.45,2.89-10.51,7.42-2.47,5.77-2.88,11.34-2.88,17.72v50.29a3.78,3.78,0,0,1-3.71,3.29ZM373.15,232.51c0,7,.2,13-3.3,19.37-2.89,5.15-7.42,8.25-12.57,8.25-7,0-11.13-5.36-11.13-13.19,0-15.46,13.81-18.34,27-18.34Zm18.34,44.31a3.74,3.74,0,0,1-4.33.41c-6-5-7.21-7.42-10.51-12.16-9.89,10.1-17.11,13.19-29.88,13.19-15.25,0-27.2-9.48-27.2-28.23,0-14.84,8-24.73,19.37-29.68,9.89-4.32,23.7-5.15,34.21-6.38V211.7c0-4.33.41-9.48-2.27-13.19-2.27-3.3-6.39-4.74-10.1-4.74-7,0-13.19,3.5-14.63,10.92-.41,1.65-1.44,3.3-3.09,3.3l-17.52-1.86c-1.44-.41-3.09-1.44-2.68-3.7,4.13-21.44,23.29-27.82,40.6-27.82,8.86,0,20.4,2.26,27.41,9.06,8.86,8.25,8,19.37,8,31.33v28.23c0,8.45,3.51,12.16,6.8,16.9,1.24,1.64,1.45,3.7,0,4.74-3.91,3.09-10.51,8.86-14.21,11.95ZM135.13,232.51c0,7,.21,13-3.29,19.37-2.89,5.15-7.42,8.25-12.57,8.25-7,0-11.13-5.36-11.13-13.19,0-15.46,13.81-18.34,27-18.34Zm18.14,44.31a3.74,3.74,0,0,1-4.33.41c-6-5-7.21-7.42-10.51-12.16-9.89,10.1-17.1,13.19-29.88,13.19-15.25,0-27.2-9.48-27.2-28.23,0-14.84,8-24.73,19.37-29.68,9.89-4.32,23.7-5.15,34.21-6.38V211.7c0-4.33.41-9.48-2.27-13.19-2.27-3.3-6.39-4.74-10.1-4.74-7,0-13.18,3.5-14.63,10.92-.41,1.65-1.44,3.3-3.09,3.3l-17.51-1.86c-1.45-.41-3.1-1.44-2.68-3.7,4.12-21.44,23.28-27.82,40.59-27.82,8.86,0,20.4,2.26,27.41,9.06,8.86,8.25,8,19.37,8,31.33v28.23c0,8.45,3.5,12.16,6.8,16.9,1.23,1.64,1.44,3.7,0,4.74-3.92,3.09-10.51,8.86-14.22,11.95Z" style="fill:#d2d2db;fill-rule:evenodd"/></svg>