<svg id="Layer_1" data-name="Layer 1" xmlns="http://www.w3.org/2000/svg" xmlns:xlink="http://www.w3.org/1999/xlink" viewBox="0 0 750 500"><defs><clipPath id="clip-path"><path d="M73.06,303.7c-3.06,0-4.65-1.15-6.17-3.83L53,274.05a6.41,6.41,0,0,1-1-3.8l21.88,1,5,5h43.91L86.33,298.81C84.56,299.86,77.8,303.7,73.06,303.7Z" style="fill:#d2d2db"/></clipPath><clipPath id="clip-path-2"><path d="M78.9,276.23H60c-5.72,0-8-3-8-6,0-1.88.6-2.91,1.44-5L81,199.37l.29-.58.38-.59.8-.78,1.16-.62,1.69-.37,2.91.08,19.17,7.12L101,224.08Z" style="fill:#d2d2db"/></clipPath><clipPath id="clip-path-3"><path d="M134.5,303.7,91,200.6c-.75-1.76-2-4-5.07-4A4.94,4.94,0,0,0,81,199.37c.38-1,1.55-3.07,5-3.07H116a4.77,4.77,0,0,1,4.71,3.12l44,104.28Z" style="fill:#d2d2db"/></clipPath></defs><title>autodesk</title><path d="M697.17,270.48a4.77,4.77,0,1,1-4.76-4.83,4.65,4.65,0,0,1,4.76,4.83m.84,0a5.61,5.61,0,1,0-5.61,5.62,5.6,5.6,0,0,0,5.61-5.62h0" style="fill:#d2d2db"/><path d="M693.44,269.18c0,.82-.69.91-1.35.91h-.59v-1.84h.87c.78,0,1.07.38,1.07.93m1.39,4.17-1.35-1.9a2.94,2.94,0,0,0-.68-.77c1-.13,1.54-.66,1.54-1.5a1.62,1.62,0,0,0-1.77-1.65h-1.91v5.82h.84v-2.6c.46,0,.63.14.91.56l1.41,2Z" style="fill:#d2d2db"/><path d="M217.64,226.64,207,251.47h21.37l-10.73-24.83Zm32.54,49.47H238.65l-6.29-15H203l-6.38,15H185.46l27.31-62.5h10.1Zm100.62,0h-11v-52H320.11V214.05h51.25l-4.23,10.11H350.8Zm208.78-52H526.34v15.78h21.29v9.76H526.34v16.5h33.25v9.91H515.36V214.05h44.22v10.11Zm77.93,52h-10.4V214.05h10.4Z" style="fill:#d2d2db"/><path d="M593.29,223c-6.34,0-11.73,1.91-11.76,6.12,0,4.93,3.06,6.64,14.73,10.44,12.9,4.24,19.75,8.55,19.68,19-.06,11.83-9.21,18.57-22.56,18.57A36.37,36.37,0,0,1,569,268.44l4-9.73c5.87,4.91,13,8.39,20.64,8.42,6.72,0,11.5-3.24,11.5-8.07,0-4.05-2.34-6.74-13.66-10.33-13-4.26-20.83-8.7-20.77-19.27S580.68,213,593.08,213s19.4,4.6,20.46,5.22l-3.9,8.84A33.69,33.69,0,0,0,593.29,223m57.62,21.08,27.78-30H665.38l-27.87,30,30.63,32h13.49l-30.72-32ZM405,267.17c-12.19,0-21.09-9.89-21.09-22.08S392.78,223,405,223s21.11,9.89,21.11,22.09-8.91,22.08-21.11,22.08M405,213a32.1,32.1,0,0,0,0,64.2h0a32.1,32.1,0,0,0,0-64.2m67.14,53.2H459.57v-42h12.58c12.2,0,21.06,8.64,21.06,20.83s-8.92,21.18-21.1,21.18m0-52.13H448.56v62.07h23.55c17.72,0,32.08-13.4,32.08-31.12s-14.36-30.95-32.08-30.95m-164,34.56c0,18.51-10.85,28.48-26.6,28.48s-26.59-10-26.59-28.48V214.06h11v35.86c0,10.86,6.37,17.23,15.6,17.23s15.62-6.37,15.62-17.23V214.05h11v34.56Z" style="fill:#d2d2db"/><path d="M73.06,303.7c-3.06,0-4.65-1.15-6.17-3.83L53,274.05a6.41,6.41,0,0,1-1-3.8l21.88,1,5,5h43.91L86.33,298.81C84.56,299.86,77.8,303.7,73.06,303.7Z" style="fill:#d2d2db"/><g style="clip-path:url(#clip-path)"><polygon points="57.32 270.25 63.98 303.7 51.98 303.7 51.98 270.25 57.32 270.25" style="fill:#d2d2db"/><polygon points="57.43 270.25 64.09 303.7 63.98 303.7 57.32 270.25 57.43 270.25" style="fill:#d2d2db"/><polygon points="57.54 270.25 64.2 303.7 64.09 303.7 57.43 270.25 57.54 270.25" style="fill:#d2d2db"/><polygon points="57.65 270.25 64.31 303.7 64.2 303.7 57.54 270.25 57.65 270.25" style="fill:#d2d2db"/><polygon points="57.76 270.25 64.42 303.7 64.31 303.7 57.65 270.25 57.76 270.25" style="fill:#d2d2db"/><polygon points="57.87 270.25 64.54 303.7 64.42 303.7 57.76 270.25 57.87 270.25" style="fill:#d2d2db"/><polygon points="57.98 270.25 64.65 303.7 64.54 303.7 57.87 270.25 57.98 270.25" style="fill:#d2d2db"/><polygon points="58.09 270.25 64.76 303.7 64.65 303.7 57.98 270.25 58.09 270.25" style="fill:#d2d2db"/><polygon points="58.2 270.25 64.87 303.7 64.76 303.7 58.09 270.25 58.2 270.25" style="fill:#d2d2db"/><polygon points="58.31 270.25 64.98 303.7 64.87 303.7 58.2 270.25 58.31 270.25" style="fill:#d2d2db"/><polygon points="58.42 270.25 65.09 303.7 64.98 303.7 58.31 270.25 58.42 270.25" style="fill:#d2d2db"/><polygon points="58.54 270.25 65.2 303.7 65.09 303.7 58.42 270.25 58.54 270.25" style="fill:#d2d2db"/><polygon points="58.65 270.25 65.31 303.7 65.2 303.7 58.54 270.25 58.65 270.25" style="fill:#d2d2db"/><polygon points="58.76 270.25 65.42 303.7 65.31 303.7 58.65 270.25 58.76 270.25" style="fill:#d2d2db"/><polygon points="58.87 270.25 65.53 303.7 65.42 303.7 58.76 270.25 58.87 270.25" style="fill:#d2d2db"/><polygon points="58.98 270.25 65.64 303.7 65.53 303.7 58.87 270.25 58.98 270.25" style="fill:#d2d2db"/><polygon points="59.09 270.25 65.75 303.7 65.64 303.7 58.98 270.25 59.09 270.25" style="fill:#d2d2db"/><polygon points="59.2 270.25 65.86 303.7 65.75 303.7 59.09 270.25 59.2 270.25" style="fill:#d2d2db"/><polygon points="59.31 270.25 65.98 303.7 65.86 303.7 59.2 270.25 59.31 270.25" style="fill:#d2d2db"/><polygon points="59.42 270.25 66.09 303.7 65.98 303.7 59.31 270.25 59.42 270.25" style="fill:#d2d2db"/><polygon points="59.53 270.25 66.2 303.7 66.09 303.7 59.42 270.25 59.53 270.25" style="fill:#d2d2db"/><polygon points="59.64 270.25 66.31 303.7 66.2 303.7 59.53 270.25 59.64 270.25" style="fill:#d2d2db"/><polygon points="59.75 270.25 66.42 303.7 66.31 303.7 59.64 270.25 59.75 270.25" style="fill:#d2d2db"/><polygon points="59.87 270.25 66.53 303.7 66.42 303.7 59.75 270.25 59.87 270.25" style="fill:#d2d2db"/><polygon points="59.98 270.25 66.64 303.7 66.53 303.7 59.87 270.25 59.98 270.25" style="fill:#d2d2db"/><polygon points="60.09 270.25 66.75 303.7 66.64 303.7 59.98 270.25 60.09 270.25" style="fill:#d2d2db"/><polygon points="60.2 270.25 66.86 303.7 66.75 303.7 60.09 270.25 60.2 270.25" style="fill:#d2d2db"/><polygon points="60.31 270.25 66.97 303.7 66.86 303.7 60.2 270.25 60.31 270.25" style="fill:#d2d2db"/><polygon points="60.42 270.25 67.08 303.7 66.97 303.7 60.31 270.25 60.42 270.25" style="fill:#d2d2db"/><polygon points="60.53 270.25 67.19 303.7 67.08 303.7 60.42 270.25 60.53 270.25" style="fill:#d2d2db"/><polygon points="60.64 270.25 67.31 303.7 67.19 303.7 60.53 270.25 60.64 270.25" style="fill:#d2d2db"/><polygon points="60.75 270.25 67.42 303.7 67.31 303.7 60.64 270.25 60.75 270.25" style="fill:#d2d2db"/><polygon points="60.86 270.25 67.53 303.7 67.42 303.7 60.75 270.25 60.86 270.25" style="fill:#d2d2db"/><polygon points="60.97 270.25 67.64 303.7 67.53 303.7 60.86 270.25 60.97 270.25" style="fill:#d2d2db"/><polygon points="61.08 270.25 67.75 303.7 67.64 303.7 60.97 270.25 61.08 270.25" style="fill:#d2d2db"/><polygon points="61.19 270.25 67.86 303.7 67.75 303.7 61.08 270.25 61.19 270.25" style="fill:#d2d2db"/><polygon points="61.3 270.25 67.97 303.7 67.86 303.7 61.19 270.25 61.3 270.25" style="fill:#d2d2db"/><polygon points="61.42 270.25 68.08 303.7 67.97 303.7 61.3 270.25 61.42 270.25" style="fill:#d2d2db"/><polygon points="61.53 270.25 68.19 303.7 68.08 303.7 61.42 270.25 61.53 270.25" style="fill:#d2d2db"/><polygon points="61.64 270.25 68.3 303.7 68.19 303.7 61.53 270.25 61.64 270.25" style="fill:#d2d2db"/><polygon points="61.75 270.25 68.41 303.7 68.3 303.7 61.64 270.25 61.75 270.25" style="fill:#d2d2db"/><polygon points="61.86 270.25 68.52 303.7 68.41 303.7 61.75 270.25 61.86 270.25" style="fill:#d2d2db"/><polygon points="61.97 270.25 68.63 303.7 68.52 303.7 61.86 270.25 61.97 270.25" style="fill:#d2d2db"/><polygon points="62.08 270.25 68.75 303.7 68.63 303.7 61.97 270.25 62.08 270.25" style="fill:#d2d2db"/><polygon points="62.19 270.25 68.86 303.7 68.75 303.7 62.08 270.25 62.19 270.25" style="fill:#d2d2db"/><polygon points="62.3 270.25 68.97 303.7 68.86 303.7 62.19 270.25 62.3 270.25" style="fill:#d2d2db"/><polygon points="62.41 270.25 69.08 303.7 68.97 303.7 62.3 270.25 62.41 270.25" style="fill:#d2d2db"/><polygon points="62.52 270.25 69.19 303.7 69.08 303.7 62.41 270.25 62.52 270.25" style="fill:#d2d2db"/><polygon points="62.63 270.25 69.3 303.7 69.19 303.7 62.52 270.25 62.63 270.25" style="fill:#d2d2db"/><polygon points="62.74 270.25 69.41 303.7 69.3 303.7 62.63 270.25 62.74 270.25" style="fill:#d2d2db"/><polygon points="62.86 270.25 69.52 303.7 69.41 303.7 62.74 270.25 62.86 270.25" style="fill:#d2d2db"/><polygon points="62.97 270.25 69.63 303.7 69.52 303.7 62.86 270.25 62.97 270.25" style="fill:#d2d2db"/><polygon points="63.08 270.25 69.74 303.7 69.63 303.7 62.97 270.25 63.08 270.25" style="fill:#d2d2db"/><polygon points="63.19 270.25 69.85 303.7 69.74 303.7 63.08 270.25 63.19 270.25" style="fill:#d2d2db"/><polygon points="63.3 270.25 69.96 303.7 69.85 303.7 63.19 270.25 63.3 270.25" style="fill:#d2d2db"/><polygon points="63.41 270.25 70.07 303.7 69.96 303.7 63.3 270.25 63.41 270.25" style="fill:#d2d2db"/><polygon points="63.52 270.25 70.19 303.7 70.07 303.7 63.41 270.25 63.52 270.25" style="fill:#d2d2db"/><polygon points="63.63 270.25 70.3 303.7 70.19 303.7 63.52 270.25 63.63 270.25" style="fill:#d2d2db"/><polygon points="63.74 270.25 70.41 303.7 70.3 303.7 63.63 270.25 63.74 270.25" style="fill:#d2d2db"/><polygon points="63.85 270.25 70.52 303.7 70.41 303.7 63.74 270.25 63.85 270.25" style="fill:#d2d2db"/><polygon points="63.96 270.25 70.63 303.7 70.52 303.7 63.85 270.25 63.96 270.25" style="fill:#d2d2db"/><polygon points="64.07 270.25 70.74 303.7 70.63 303.7 63.96 270.25 64.07 270.25" style="fill:#d2d2db"/><polygon points="64.19 270.25 70.85 303.7 70.74 303.7 64.07 270.25 64.19 270.25" style="fill:#d2d2db"/><polygon points="64.3 270.25 70.96 303.7 70.85 303.7 64.19 270.25 64.3 270.25" style="fill:#d2d2db"/><polygon points="64.41 270.25 71.07 303.7 70.96 303.7 64.3 270.25 64.41 270.25" style="fill:#d2d2db"/><polygon points="64.89 270.25 71.56 303.7 71.07 303.7 64.41 270.25 64.89 270.25" style="fill:#d2d2db"/><polygon points="65.38 270.25 72.04 303.7 71.56 303.7 64.89 270.25 65.38 270.25" style="fill:#d2d2db"/><polygon points="65.87 270.25 72.53 303.7 72.04 303.7 65.38 270.25 65.87 270.25" style="fill:#d2d2db"/><polygon points="66.35 270.25 73.02 303.7 72.53 303.7 65.87 270.25 66.35 270.25" style="fill:#d2d2db"/><polygon points="66.84 270.25 73.5 303.7 73.02 303.7 66.35 270.25 66.84 270.25" style="fill:#d2d2db"/><polygon points="67.33 270.25 73.99 303.7 73.5 303.7 66.84 270.25 67.33 270.25" style="fill:#d2d2db"/><polygon points="67.81 270.25 74.48 303.7 73.99 303.7 67.33 270.25 67.81 270.25" style="fill:#d2d2db"/><polygon points="68.3 270.25 74.96 303.7 74.48 303.7 67.81 270.25 68.3 270.25" style="fill:#d2d2db"/><polygon points="68.78 270.25 75.45 303.7 74.96 303.7 68.3 270.25 68.78 270.25" style="fill:#d2d2db"/><polygon points="69.27 270.25 75.94 303.7 75.45 303.7 68.78 270.25 69.27 270.25" style="fill:#d2d2db"/><polygon points="69.76 270.25 76.42 303.7 75.94 303.7 69.27 270.25 69.76 270.25" style="fill:#d2d2db"/><polygon points="70.25 270.25 76.91 303.7 76.42 303.7 69.76 270.25 70.25 270.25" style="fill:#d2d2db"/><polygon points="70.73 270.25 77.4 303.7 76.91 303.7 70.25 270.25 70.73 270.25" style="fill:#d2d2db"/><polygon points="71.22 270.25 77.88 303.7 77.4 303.7 70.73 270.25 71.22 270.25" style="fill:#d2d2db"/><polygon points="122.79 294.79 78.05 303.7 77.88 303.7 71.22 270.25 122.79 270.25 122.79 294.79" style="fill:#d2d2db"/></g><path d="M78.9,276.23H60c-5.72,0-8-3-8-6,0-1.88.6-2.91,1.44-5L81,199.37l.29-.58.38-.59.8-.78,1.16-.62,1.69-.37,2.91.08,19.17,7.12L101,224.08Z" style="fill:#d2d2db"/><g style="clip-path:url(#clip-path-2)"><polygon points="107.43 209.36 106.86 210.71 80.86 199.64 82.22 196.43 107.43 196.43 107.43 209.36" style="fill:#d2d2db"/><rect x="93.77" y="191.1" width="0.12" height="28.26" transform="translate(-131.75 211.16) rotate(-66.94)" style="fill:#d2d2db"/><rect x="93.73" y="191.21" width="0.12" height="28.26" transform="translate(-131.88 211.18) rotate(-66.94)" style="fill:#d2d2db"/><rect x="93.68" y="191.31" width="0.12" height="28.26" transform="translate(-132 211.21) rotate(-66.94)" style="fill:#d2d2db"/><rect x="93.64" y="191.42" width="0.12" height="28.26" transform="translate(-132.13 211.23) rotate(-66.94)" style="fill:#d2d2db"/><rect x="93.59" y="191.53" width="0.12" height="28.26" transform="translate(-132.26 211.25) rotate(-66.94)" style="fill:#d2d2db"/><rect x="93.55" y="191.64" width="0.12" height="28.26" transform="translate(-132.38 211.27) rotate(-66.94)" style="fill:#d2d2db"/><rect x="93.5" y="191.74" width="0.12" height="28.26" transform="translate(-132.51 211.3) rotate(-66.94)" style="fill:#d2d2db"/><rect x="93.46" y="191.85" width="0.12" height="28.26" transform="translate(-132.63 211.32) rotate(-66.94)" style="fill:#d2d2db"/><rect x="93.41" y="191.96" width="0.12" height="28.26" transform="translate(-132.76 211.34) rotate(-66.94)" style="fill:#d2d2db"/><rect x="93.37" y="192.06" width="0.12" height="28.26" transform="translate(-132.89 211.37) rotate(-66.94)" style="fill:#d2d2db"/><rect x="93.32" y="192.17" width="0.12" height="28.26" transform="translate(-133.01 211.39) rotate(-66.94)" style="fill:#d2d2db"/><rect x="93.27" y="192.28" width="0.12" height="28.26" transform="translate(-133.14 211.41) rotate(-66.94)" style="fill:#d2d2db"/><rect x="93.23" y="192.38" width="0.12" height="28.26" transform="translate(-133.26 211.44) rotate(-66.94)" style="fill:#d2d2db"/><rect x="93.18" y="192.49" width="0.12" height="28.26" transform="translate(-133.39 211.46) rotate(-66.94)" style="fill:#d2d2db"/><rect x="93.14" y="192.6" width="0.12" height="28.26" transform="translate(-133.51 211.48) rotate(-66.94)" style="fill:#d2d2db"/><rect x="93.09" y="192.7" width="0.12" height="28.26" transform="translate(-133.64 211.51) rotate(-66.94)" style="fill:#d2d2db"/><rect x="93.05" y="192.81" width="0.12" height="28.26" transform="translate(-133.77 211.53) rotate(-66.94)" style="fill:#d2d2db"/><rect x="93" y="192.92" width="0.12" height="28.26" transform="translate(-133.89 211.55) rotate(-66.94)" style="fill:#d2d2db"/><rect x="92.96" y="193.02" width="0.12" height="28.26" transform="translate(-134.02 211.57) rotate(-66.94)" style="fill:#d2d2db"/><rect x="92.91" y="193.13" width="0.12" height="28.26" transform="translate(-134.14 211.6) rotate(-66.94)" style="fill:#d2d2db"/><rect x="92.87" y="193.24" width="0.12" height="28.26" transform="matrix(0.39, -0.92, 0.92, 0.39, -134.27, 211.62)" style="fill:#d2d2db"/><rect x="92.82" y="193.34" width="0.12" height="28.26" transform="translate(-134.39 211.64) rotate(-66.94)" style="fill:#d2d2db"/><rect x="92.78" y="193.45" width="0.12" height="28.26" transform="translate(-134.52 211.67) rotate(-66.94)" style="fill:#d2d2db"/><rect x="92.73" y="193.56" width="0.12" height="28.26" transform="translate(-134.65 211.69) rotate(-66.94)" style="fill:#d2d2db"/><rect x="92.68" y="193.66" width="0.12" height="28.26" transform="translate(-134.77 211.71) rotate(-66.94)" style="fill:#d2d2db"/><rect x="92.64" y="193.77" width="0.12" height="28.26" transform="translate(-134.9 211.74) rotate(-66.94)" style="fill:#d2d2db"/><rect x="92.59" y="193.88" width="0.12" height="28.26" transform="translate(-135.02 211.76) rotate(-66.94)" style="fill:#d2d2db"/><rect x="92.55" y="193.98" width="0.12" height="28.26" transform="translate(-135.15 211.78) rotate(-66.94)" style="fill:#d2d2db"/><rect x="92.5" y="194.09" width="0.12" height="28.26" transform="translate(-135.28 211.81) rotate(-66.94)" style="fill:#d2d2db"/><rect x="92.46" y="194.2" width="0.12" height="28.26" transform="translate(-135.4 211.83) rotate(-66.94)" style="fill:#d2d2db"/><rect x="92.41" y="194.3" width="0.12" height="28.26" transform="translate(-135.53 211.85) rotate(-66.94)" style="fill:#d2d2db"/><rect x="92.37" y="194.41" width="0.12" height="28.26" transform="translate(-135.65 211.87) rotate(-66.94)" style="fill:#d2d2db"/><rect x="92.32" y="194.52" width="0.12" height="28.26" transform="translate(-135.78 211.9) rotate(-66.94)" style="fill:#d2d2db"/><rect x="92.28" y="194.62" width="0.12" height="28.26" transform="translate(-135.9 211.92) rotate(-66.94)" style="fill:#d2d2db"/><rect x="92.23" y="194.73" width="0.12" height="28.26" transform="translate(-136.03 211.94) rotate(-66.94)" style="fill:#d2d2db"/><rect x="92.18" y="194.84" width="0.12" height="28.26" transform="translate(-136.16 211.97) rotate(-66.94)" style="fill:#d2d2db"/><rect x="92.14" y="194.94" width="0.12" height="28.26" transform="translate(-136.28 211.99) rotate(-66.94)" style="fill:#d2d2db"/><rect x="92.09" y="195.05" width="0.12" height="28.26" transform="translate(-136.41 212.01) rotate(-66.94)" style="fill:#d2d2db"/><rect x="92.05" y="195.16" width="0.12" height="28.26" transform="translate(-136.53 212.04) rotate(-66.94)" style="fill:#d2d2db"/><rect x="92" y="195.26" width="0.12" height="28.26" transform="translate(-136.66 212.06) rotate(-66.94)" style="fill:#d2d2db"/><rect x="91.96" y="195.37" width="0.12" height="28.26" transform="translate(-136.78 212.08) rotate(-66.94)" style="fill:#d2d2db"/><rect x="91.91" y="195.48" width="0.12" height="28.26" transform="translate(-136.91 212.11) rotate(-66.94)" style="fill:#d2d2db"/><rect x="91.87" y="195.58" width="0.12" height="28.26" transform="translate(-137.04 212.13) rotate(-66.94)" style="fill:#d2d2db"/><rect x="91.82" y="195.69" width="0.12" height="28.26" transform="translate(-137.16 212.15) rotate(-66.94)" style="fill:#d2d2db"/><rect x="91.78" y="195.8" width="0.12" height="28.26" transform="translate(-137.29 212.18) rotate(-66.94)" style="fill:#d2d2db"/><rect x="91.73" y="195.9" width="0.12" height="28.26" transform="translate(-137.41 212.2) rotate(-66.94)" style="fill:#d2d2db"/><rect x="91.68" y="196.01" width="0.12" height="28.26" transform="translate(-137.54 212.22) rotate(-66.94)" style="fill:#d2d2db"/><rect x="91.64" y="196.12" width="0.12" height="28.26" transform="translate(-137.67 212.24) rotate(-66.94)" style="fill:#d2d2db"/><rect x="91.59" y="196.22" width="0.12" height="28.26" transform="translate(-137.79 212.27) rotate(-66.94)" style="fill:#d2d2db"/><rect x="91.55" y="196.33" width="0.12" height="28.26" transform="translate(-137.92 212.29) rotate(-66.94)" style="fill:#d2d2db"/><rect x="91.5" y="196.44" width="0.12" height="28.26" transform="translate(-138.04 212.31) rotate(-66.94)" style="fill:#d2d2db"/><rect x="91.46" y="196.54" width="0.12" height="28.26" transform="translate(-138.17 212.34) rotate(-66.94)" style="fill:#d2d2db"/><rect x="91.41" y="196.65" width="0.12" height="28.26" transform="translate(-138.29 212.36) rotate(-66.94)" style="fill:#d2d2db"/><rect x="91.37" y="196.76" width="0.12" height="28.26" transform="translate(-138.42 212.38) rotate(-66.94)" style="fill:#d2d2db"/><rect x="91.32" y="196.86" width="0.12" height="28.26" transform="translate(-138.55 212.41) rotate(-66.94)" style="fill:#d2d2db"/><rect x="91.28" y="196.97" width="0.12" height="28.26" transform="translate(-138.67 212.43) rotate(-66.94)" style="fill:#d2d2db"/><rect x="91.23" y="197.08" width="0.12" height="28.26" transform="translate(-138.8 212.45) rotate(-66.94)" style="fill:#d2d2db"/><rect x="91.19" y="197.18" width="0.12" height="28.26" transform="translate(-138.92 212.48) rotate(-66.94)" style="fill:#d2d2db"/><rect x="91.14" y="197.29" width="0.12" height="28.26" transform="translate(-139.05 212.5) rotate(-66.94)" style="fill:#d2d2db"/><rect x="91.09" y="197.4" width="0.12" height="28.26" transform="matrix(0.39, -0.92, 0.92, 0.39, -139.17, 212.52)" style="fill:#d2d2db"/><rect x="91.05" y="197.5" width="0.12" height="28.26" transform="translate(-139.3 212.54) rotate(-66.94)" style="fill:#d2d2db"/><rect x="91" y="197.61" width="0.12" height="28.26" transform="translate(-139.43 212.57) rotate(-66.94)" style="fill:#d2d2db"/><rect x="90.96" y="197.72" width="0.12" height="28.26" transform="translate(-139.55 212.59) rotate(-66.94)" style="fill:#d2d2db"/><rect x="90.91" y="197.82" width="0.12" height="28.26" transform="translate(-139.68 212.61) rotate(-66.94)" style="fill:#d2d2db"/><rect x="90.87" y="197.93" width="0.12" height="28.26" transform="translate(-139.8 212.64) rotate(-66.94)" style="fill:#d2d2db"/><rect x="90.82" y="198.04" width="0.12" height="28.26" transform="translate(-139.93 212.66) rotate(-66.94)" style="fill:#d2d2db"/><rect x="90.78" y="198.14" width="0.12" height="28.26" transform="translate(-140.06 212.68) rotate(-66.94)" style="fill:#d2d2db"/><rect x="90.73" y="198.25" width="0.12" height="28.26" transform="translate(-140.18 212.71) rotate(-66.94)" style="fill:#d2d2db"/><rect x="90.69" y="198.36" width="0.12" height="28.26" transform="translate(-140.31 212.73) rotate(-66.94)" style="fill:#d2d2db"/><rect x="90.64" y="198.46" width="0.12" height="28.26" transform="translate(-140.43 212.75) rotate(-66.94)" style="fill:#d2d2db"/><rect x="90.59" y="198.57" width="0.12" height="28.26" transform="translate(-140.56 212.78) rotate(-66.94)" style="fill:#d2d2db"/><rect x="90.55" y="198.68" width="0.12" height="28.26" transform="translate(-140.68 212.8) rotate(-66.94)" style="fill:#d2d2db"/><rect x="90.38" y="198.87" width="0.3" height="28.26" transform="translate(-140.91 212.84) rotate(-66.94)" style="fill:#d2d2db"/><rect x="90.26" y="199.14" width="0.3" height="28.26" transform="translate(-141.23 212.9) rotate(-66.94)" style="fill:#d2d2db"/><rect x="90.15" y="199.41" width="0.3" height="28.26" transform="translate(-141.55 212.96) rotate(-66.94)" style="fill:#d2d2db"/><rect x="90.03" y="199.68" width="0.3" height="28.26" transform="translate(-141.87 213.02) rotate(-66.94)" style="fill:#d2d2db"/><rect x="89.91" y="199.96" width="0.3" height="28.26" transform="translate(-142.19 213.08) rotate(-66.94)" style="fill:#d2d2db"/><rect x="89.8" y="200.23" width="0.3" height="28.26" transform="translate(-142.51 213.13) rotate(-66.94)" style="fill:#d2d2db"/><rect x="89.68" y="200.5" width="0.3" height="28.26" transform="translate(-142.83 213.19) rotate(-66.94)" style="fill:#d2d2db"/><rect x="89.57" y="200.77" width="0.3" height="28.26" transform="translate(-143.16 213.25) rotate(-66.94)" style="fill:#d2d2db"/><rect x="89.45" y="201.05" width="0.3" height="28.26" transform="translate(-143.48 213.31) rotate(-66.94)" style="fill:#d2d2db"/><rect x="89.33" y="201.32" width="0.3" height="28.26" transform="translate(-143.8 213.37) rotate(-66.94)" style="fill:#d2d2db"/><rect x="89.22" y="201.59" width="0.3" height="28.26" transform="translate(-144.12 213.43) rotate(-66.94)" style="fill:#d2d2db"/><rect x="89.1" y="201.86" width="0.3" height="28.26" transform="translate(-144.44 213.49) rotate(-66.94)" style="fill:#d2d2db"/><rect x="88.99" y="202.13" width="0.3" height="28.26" transform="translate(-144.76 213.55) rotate(-66.94)" style="fill:#d2d2db"/><rect x="88.87" y="202.41" width="0.3" height="28.26" transform="translate(-145.08 213.61) rotate(-66.94)" style="fill:#d2d2db"/><rect x="88.75" y="202.68" width="0.3" height="28.26" transform="translate(-145.4 213.67) rotate(-66.94)" style="fill:#d2d2db"/><rect x="88.64" y="202.95" width="0.3" height="28.26" transform="translate(-145.73 213.72) rotate(-66.94)" style="fill:#d2d2db"/><rect x="88.52" y="203.22" width="0.3" height="28.26" transform="translate(-146.05 213.78) rotate(-66.94)" style="fill:#d2d2db"/><rect x="88.41" y="203.5" width="0.3" height="28.26" transform="translate(-146.37 213.84) rotate(-66.94)" style="fill:#d2d2db"/><rect x="88.29" y="203.77" width="0.3" height="28.26" transform="translate(-146.69 213.9) rotate(-66.94)" style="fill:#d2d2db"/><rect x="88.17" y="204.04" width="0.3" height="28.26" transform="translate(-147.01 213.96) rotate(-66.94)" style="fill:#d2d2db"/><rect x="88.06" y="204.31" width="0.3" height="28.26" transform="translate(-147.33 214.02) rotate(-66.94)" style="fill:#d2d2db"/><rect x="87.94" y="204.59" width="0.3" height="28.26" transform="translate(-147.65 214.08) rotate(-66.94)" style="fill:#d2d2db"/><rect x="87.83" y="204.86" width="0.3" height="28.26" transform="translate(-147.97 214.14) rotate(-66.94)" style="fill:#d2d2db"/><rect x="87.71" y="205.13" width="0.3" height="28.26" transform="translate(-148.29 214.2) rotate(-66.94)" style="fill:#d2d2db"/><rect x="87.59" y="205.4" width="0.3" height="28.26" transform="translate(-148.62 214.26) rotate(-66.94)" style="fill:#d2d2db"/><rect x="87.48" y="205.68" width="0.3" height="28.26" transform="translate(-148.94 214.31) rotate(-66.94)" style="fill:#d2d2db"/><rect x="87.36" y="205.95" width="0.3" height="28.26" transform="translate(-149.26 214.37) rotate(-66.94)" style="fill:#d2d2db"/><rect x="87.25" y="206.22" width="0.3" height="28.26" transform="translate(-149.58 214.43) rotate(-66.94)" style="fill:#d2d2db"/><rect x="87.13" y="206.49" width="0.3" height="28.26" transform="translate(-149.9 214.49) rotate(-66.94)" style="fill:#d2d2db"/><polygon points="100.22 226.29 78.96 276.23 51.99 276.23 51.99 267.44 74.22 215.22 100.22 226.29" style="fill:#d2d2db"/></g><path d="M134.5,303.7,91,200.6c-.75-1.76-2-4-5.07-4A4.94,4.94,0,0,0,81,199.37c.38-1,1.55-3.07,5-3.07H116a4.77,4.77,0,0,1,4.71,3.12l44,104.28Z" style="fill:#d2d2db"/><g style="clip-path:url(#clip-path-3)"><polygon points="105.29 196.3 83.52 205.44 81.03 199.5 81.03 196.3 105.29 196.3" style="fill:#d2d2db"/><polygon points="105.9 196.3 83.61 205.66 83.52 205.44 105.29 196.3 105.9 196.3" style="fill:#d2d2db"/><polygon points="106.51 196.3 83.7 205.87 83.61 205.66 105.9 196.3 106.51 196.3" style="fill:#d2d2db"/><polygon points="107.12 196.3 83.79 206.09 83.7 205.87 106.51 196.3 107.12 196.3" style="fill:#d2d2db"/><polygon points="107.72 196.3 83.89 206.31 83.79 206.09 107.12 196.3 107.72 196.3" style="fill:#d2d2db"/><polygon points="108.33 196.3 83.98 206.53 83.89 206.31 107.72 196.3 108.33 196.3" style="fill:#d2d2db"/><polygon points="108.94 196.3 84.07 206.74 83.98 206.53 108.33 196.3 108.94 196.3" style="fill:#d2d2db"/><polygon points="109.55 196.3 84.16 206.96 84.07 206.74 108.94 196.3 109.55 196.3" style="fill:#d2d2db"/><polygon points="110.16 196.3 84.25 207.18 84.16 206.96 109.55 196.3 110.16 196.3" style="fill:#d2d2db"/><polygon points="110.77 196.3 84.34 207.4 84.25 207.18 110.16 196.3 110.77 196.3" style="fill:#d2d2db"/><polygon points="111.38 196.3 84.43 207.61 84.34 207.4 110.77 196.3 111.38 196.3" style="fill:#d2d2db"/><polygon points="111.99 196.3 84.53 207.83 84.43 207.61 111.38 196.3 111.99 196.3" style="fill:#d2d2db"/><polygon points="112.6 196.3 84.62 208.05 84.53 207.83 111.99 196.3 112.6 196.3" style="fill:#d2d2db"/><polygon points="113.21 196.3 84.71 208.26 84.62 208.05 112.6 196.3 113.21 196.3" style="fill:#d2d2db"/><polygon points="113.82 196.3 84.8 208.48 84.71 208.26 113.21 196.3 113.82 196.3" style="fill:#d2d2db"/><polygon points="114.42 196.3 84.89 208.7 84.8 208.48 113.82 196.3 114.42 196.3" style="fill:#d2d2db"/><polygon points="115.03 196.3 84.98 208.92 84.89 208.7 114.42 196.3 115.03 196.3" style="fill:#d2d2db"/><polygon points="115.64 196.3 85.07 209.13 84.98 208.92 115.03 196.3 115.64 196.3" style="fill:#d2d2db"/><polygon points="116.25 196.3 85.16 209.35 85.07 209.13 115.64 196.3 116.25 196.3" style="fill:#d2d2db"/><polygon points="116.86 196.3 85.25 209.57 85.16 209.35 116.25 196.3 116.86 196.3" style="fill:#d2d2db"/><polygon points="117.47 196.3 85.35 209.79 85.25 209.57 116.86 196.3 117.47 196.3" style="fill:#d2d2db"/><polygon points="118.08 196.3 85.44 210 85.35 209.79 117.47 196.3 118.08 196.3" style="fill:#d2d2db"/><polygon points="118.69 196.3 85.53 210.22 85.44 210 118.08 196.3 118.69 196.3" style="fill:#d2d2db"/><polygon points="119.3 196.3 85.62 210.44 85.53 210.22 118.69 196.3 119.3 196.3" style="fill:#d2d2db"/><polygon points="119.74 196.3 119.76 196.36 85.71 210.66 85.62 210.44 119.3 196.3 119.74 196.3" style="fill:#d2d2db"/><rect x="84.32" y="203.5" width="36.93" height="0.24" transform="translate(-70.82 55.67) rotate(-22.78)" style="fill:#d2d2db"/><rect x="84.41" y="203.72" width="36.93" height="0.24" transform="translate(-70.89 55.73) rotate(-22.78)" style="fill:#d2d2db"/><rect x="84.5" y="203.93" width="36.93" height="0.24" transform="translate(-70.97 55.78) rotate(-22.78)" style="fill:#d2d2db"/><rect x="84.59" y="204.15" width="36.93" height="0.24" transform="translate(-71.05 55.83) rotate(-22.78)" style="fill:#d2d2db"/><rect x="84.68" y="204.37" width="36.93" height="0.24" transform="translate(-71.13 55.88) rotate(-22.78)" style="fill:#d2d2db"/><rect x="84.77" y="204.59" width="36.93" height="0.24" transform="translate(-71.2 55.94) rotate(-22.78)" style="fill:#d2d2db"/><rect x="84.86" y="204.8" width="36.93" height="0.24" transform="translate(-71.28 55.99) rotate(-22.78)" style="fill:#d2d2db"/><rect x="84.96" y="205.02" width="36.93" height="0.24" transform="translate(-71.36 56.04) rotate(-22.78)" style="fill:#d2d2db"/><rect x="85.05" y="205.24" width="36.93" height="0.24" transform="translate(-71.43 56.09) rotate(-22.78)" style="fill:#d2d2db"/><rect x="85.14" y="205.46" width="36.93" height="0.24" transform="translate(-71.51 56.14) rotate(-22.78)" style="fill:#d2d2db"/><rect x="85.23" y="205.67" width="36.93" height="0.24" transform="translate(-71.59 56.2) rotate(-22.78)" style="fill:#d2d2db"/><rect x="85.32" y="205.89" width="36.93" height="0.24" transform="translate(-71.67 56.25) rotate(-22.78)" style="fill:#d2d2db"/><rect x="85.41" y="206.11" width="36.93" height="0.24" transform="translate(-71.74 56.3) rotate(-22.78)" style="fill:#d2d2db"/><rect x="85.5" y="206.33" width="36.93" height="0.24" transform="translate(-71.82 56.35) rotate(-22.78)" style="fill:#d2d2db"/><rect x="85.6" y="206.54" width="36.93" height="0.24" transform="translate(-71.9 56.41) rotate(-22.78)" style="fill:#d2d2db"/><rect x="85.69" y="206.76" width="36.93" height="0.24" transform="translate(-71.97 56.46) rotate(-22.78)" style="fill:#d2d2db"/><rect x="85.78" y="206.98" width="36.93" height="0.24" transform="translate(-72.05 56.51) rotate(-22.78)" style="fill:#d2d2db"/><rect x="85.87" y="207.2" width="36.93" height="0.24" transform="translate(-72.13 56.56) rotate(-22.78)" style="fill:#d2d2db"/><rect x="85.96" y="207.41" width="36.93" height="0.24" transform="translate(-72.2 56.62) rotate(-22.78)" style="fill:#d2d2db"/><rect x="86.05" y="207.63" width="36.93" height="0.24" transform="translate(-72.28 56.67) rotate(-22.78)" style="fill:#d2d2db"/><rect x="86.14" y="207.85" width="36.93" height="0.24" transform="translate(-72.36 56.72) rotate(-22.78)" style="fill:#d2d2db"/><rect x="86.23" y="208.06" width="36.93" height="0.24" transform="translate(-72.44 56.77) rotate(-22.78)" style="fill:#d2d2db"/><rect x="86.33" y="208.28" width="36.93" height="0.24" transform="translate(-72.51 56.82) rotate(-22.78)" style="fill:#d2d2db"/><rect x="86.42" y="208.5" width="36.93" height="0.24" transform="translate(-72.59 56.88) rotate(-22.78)" style="fill:#d2d2db"/><rect x="86.51" y="208.72" width="36.93" height="0.24" transform="translate(-72.67 56.93) rotate(-22.78)" style="fill:#d2d2db"/><rect x="86.6" y="208.93" width="36.93" height="0.24" transform="translate(-72.74 56.98) rotate(-22.78)" style="fill:#d2d2db"/><rect x="86.69" y="209.15" width="36.93" height="0.24" transform="translate(-72.82 57.03) rotate(-22.78)" style="fill:#d2d2db"/><rect x="86.78" y="209.37" width="36.93" height="0.24" transform="translate(-72.9 57.09) rotate(-22.78)" style="fill:#d2d2db"/><rect x="86.87" y="209.59" width="36.93" height="0.24" transform="translate(-72.98 57.14) rotate(-22.78)" style="fill:#d2d2db"/><rect x="86.96" y="209.8" width="36.93" height="0.24" transform="translate(-73.05 57.19) rotate(-22.78)" style="fill:#d2d2db"/><rect x="87.06" y="210.02" width="36.93" height="0.24" transform="translate(-73.13 57.24) rotate(-22.78)" style="fill:#d2d2db"/><rect x="87.17" y="210.23" width="36.93" height="0.37" transform="matrix(0.92, -0.39, 0.39, 0.92, -73.23, 57.31)" style="fill:#d2d2db"/><rect x="87.32" y="210.58" width="36.93" height="0.37" transform="translate(-73.35 57.39) rotate(-22.78)" style="fill:#d2d2db"/><rect x="87.46" y="210.92" width="36.93" height="0.37" transform="translate(-73.47 57.47) rotate(-22.78)" style="fill:#d2d2db"/><rect x="87.6" y="211.26" width="36.93" height="0.37" transform="translate(-73.59 57.56) rotate(-22.78)" style="fill:#d2d2db"/><rect x="87.75" y="211.6" width="36.93" height="0.37" transform="translate(-73.71 57.64) rotate(-22.78)" style="fill:#d2d2db"/><rect x="87.89" y="211.94" width="36.93" height="0.37" transform="translate(-73.83 57.72) rotate(-22.78)" style="fill:#d2d2db"/><rect x="88.03" y="212.28" width="36.93" height="0.37" transform="translate(-73.95 57.8) rotate(-22.78)" style="fill:#d2d2db"/><rect x="88.18" y="212.62" width="36.93" height="0.37" transform="translate(-74.07 57.88) rotate(-22.78)" style="fill:#d2d2db"/><rect x="88.32" y="212.96" width="36.93" height="0.37" transform="translate(-74.2 57.97) rotate(-22.78)" style="fill:#d2d2db"/><rect x="88.46" y="213.31" width="36.93" height="0.37" transform="translate(-74.32 58.05) rotate(-22.78)" style="fill:#d2d2db"/><rect x="88.61" y="213.65" width="36.93" height="0.37" transform="translate(-74.44 58.13) rotate(-22.78)" style="fill:#d2d2db"/><rect x="88.75" y="213.99" width="36.93" height="0.37" transform="translate(-74.56 58.21) rotate(-22.78)" style="fill:#d2d2db"/><rect x="88.89" y="214.33" width="36.93" height="0.37" transform="translate(-74.68 58.3) rotate(-22.78)" style="fill:#d2d2db"/><rect x="89.04" y="214.67" width="36.93" height="0.37" transform="translate(-74.8 58.38) rotate(-22.78)" style="fill:#d2d2db"/><rect x="89.18" y="215.01" width="36.93" height="0.37" transform="translate(-74.92 58.46) rotate(-22.78)" style="fill:#d2d2db"/><rect x="89.32" y="215.35" width="36.93" height="0.37" transform="translate(-75.04 58.54) rotate(-22.78)" style="fill:#d2d2db"/><rect x="89.47" y="215.69" width="36.93" height="0.37" transform="matrix(0.92, -0.39, 0.39, 0.92, -75.16, 58.62)" style="fill:#d2d2db"/><rect x="89.61" y="216.04" width="36.93" height="0.37" transform="translate(-75.28 58.71) rotate(-22.78)" style="fill:#d2d2db"/><rect x="89.75" y="216.38" width="36.93" height="0.37" transform="translate(-75.41 58.79) rotate(-22.78)" style="fill:#d2d2db"/><rect x="89.9" y="216.72" width="36.93" height="0.37" transform="translate(-75.53 58.87) rotate(-22.78)" style="fill:#d2d2db"/><rect x="90.04" y="217.06" width="36.93" height="0.37" transform="translate(-75.65 58.95) rotate(-22.78)" style="fill:#d2d2db"/><rect x="90.18" y="217.4" width="36.93" height="0.37" transform="translate(-75.77 59.03) rotate(-22.78)" style="fill:#d2d2db"/><rect x="90.33" y="217.74" width="36.93" height="0.37" transform="translate(-75.89 59.12) rotate(-22.78)" style="fill:#d2d2db"/><rect x="90.47" y="218.08" width="36.93" height="0.37" transform="translate(-76.01 59.2) rotate(-22.78)" style="fill:#d2d2db"/><rect x="90.61" y="218.42" width="36.93" height="0.37" transform="translate(-76.13 59.28) rotate(-22.78)" style="fill:#d2d2db"/><rect x="90.76" y="218.77" width="36.93" height="0.37" transform="translate(-76.25 59.36) rotate(-22.78)" style="fill:#d2d2db"/><rect x="90.9" y="219.11" width="36.93" height="0.37" transform="translate(-76.37 59.44) rotate(-22.78)" style="fill:#d2d2db"/><rect x="91.04" y="219.45" width="36.93" height="0.37" transform="translate(-76.49 59.53) rotate(-22.78)" style="fill:#d2d2db"/><rect x="91.19" y="219.79" width="36.93" height="0.37" transform="matrix(0.92, -0.39, 0.39, 0.92, -76.61, 59.61)" style="fill:#d2d2db"/><rect x="91.33" y="220.13" width="36.93" height="0.37" transform="translate(-76.74 59.69) rotate(-22.78)" style="fill:#d2d2db"/><rect x="91.47" y="220.47" width="36.93" height="0.37" transform="translate(-76.86 59.77) rotate(-22.78)" style="fill:#d2d2db"/><rect x="91.62" y="220.81" width="36.93" height="0.37" transform="translate(-76.98 59.86) rotate(-22.78)" style="fill:#d2d2db"/><rect x="91.76" y="221.15" width="36.93" height="0.37" transform="translate(-77.1 59.94) rotate(-22.78)" style="fill:#d2d2db"/><polygon points="127.32 214.36 164.78 303.57 164.78 303.7 124.78 303.7 93.27 228.66 127.32 214.36" style="fill:#d2d2db"/></g></svg>