<svg id="Layer_1" data-name="Layer 1" xmlns="http://www.w3.org/2000/svg" viewBox="0 0 750 500"><title>eastern-bank</title><g id="FyhUoP"><path d="M90.07,207.91c-1.41,1.57-2.48,2.8-3.59,4q-12.23,13-24.48,26.05A15.62,15.62,0,0,0,58,247a24.25,24.25,0,0,0,2.28,14.13,9.92,9.92,0,0,0,1.55,2.44c2.29,2.34,4.66,4.59,7,6.86a4,4,0,0,0,1,.46c-.07-1.21-.17-2.21-.19-3.21a27.6,27.6,0,0,1,7.69-20.1c3.93-4.17,8-8.25,11.91-12.41,4.67-4.91,9.29-9.87,13.92-14.81a8.79,8.79,0,0,0,.65-.88c-3.82-3.92-8-7.39-12.2-11.51a11.2,11.2,0,0,1,1.74-.15,68.24,68.24,0,0,1,16.19,2.91,47.24,47.24,0,0,1,20.73,13.42A40.6,40.6,0,0,1,140,243.68a36.14,36.14,0,0,1-.73,16.35,39.37,39.37,0,0,1-10.82,18.71A46.77,46.77,0,0,1,105,290.84a44.18,44.18,0,0,1-10,1.38,18.62,18.62,0,0,1-6.18-9.78,20.38,20.38,0,0,1,1.55-14.95,31.52,31.52,0,0,1,4.91-6.31c5.26-5.79,10.61-11.49,15.94-17.21,2.49-2.67,5-5.31,7.5-8a14.69,14.69,0,0,0,1-1.4L107,222.42c-1.61,1.63-3.12,3.13-4.6,4.66-3.57,3.69-7.14,7.38-10.67,11.1-4.31,4.53-8.64,9-12.87,13.64-3,3.31-4.33,7.43-4.78,11.8a22.91,22.91,0,0,0,2.28,12.58,12.58,12.58,0,0,0,2.25,3.28c4.07,4.14,8.23,8.2,12.36,12.29.09.08.11.23.19.41a31.7,31.7,0,0,1-8.43-.62A50.08,50.08,0,0,1,68,286.79c-11.51-5.92-20.15-14.44-24-27.15-2.32-7.71-1.5-15.31,1.23-22.75a42.69,42.69,0,0,1,16.39-21,44.14,44.14,0,0,1,18.74-7.35c2.71-.39,5.46-.58,8.19-.84A9.88,9.88,0,0,1,90.07,207.91Zm32.74,29.53c-1.71,1.84-3.19,3.5-4.73,5.1-5.27,5.48-10.58,10.9-15.81,16.42A48.35,48.35,0,0,0,95.59,267a20,20,0,0,0-3.23,11.41c.2,4.54,2.29,8.17,5.34,11.66L135.93,250Z" style="fill:#d2d2db"/><path d="M483.22,226.55c1.35-.06,2.08-.12,2.82-.12,8,0,16.09,0,24.14,0A29.65,29.65,0,0,1,523,229.09c3.48,1.65,6.3,4,7.54,7.78a12.57,12.57,0,0,1-5,13.75c-.55.37-1.13.7-1.94,1.2,1,.39,1.83.69,2.63,1a17.61,17.61,0,0,1,7.92,6c3.57,5.12,3.54,10.61,1.22,16.14-2.23,5.32-6.55,8.5-11.75,10.66-4.43,1.83-9.1,2.08-13.79,2.17q-9.27.18-18.54.23c-2.6,0-5.19-.16-8.07-.26.46-.49.79-.82,1.09-1.16a11.1,11.1,0,0,0,2.77-6.69c.11-1.77.14-3.56.14-5.34q0-18.1,0-36.21c0-.89.06-1.78,0-2.67A11.63,11.63,0,0,0,483.22,226.55Zm20.16,31.3v23.08c.63,0,1.13,0,1.64,0,1.78-.12,3.57-.21,5.34-.42a11.11,11.11,0,0,0,6.52-3.16c4.6-4.45,4-11.64.33-16.06a8.35,8.35,0,0,0-5.84-3.39C508.78,257.71,506.17,257.85,503.38,257.85Zm0-6.57c3.94.34,7.27-.18,9.44-3.75s2.14-8.07-.15-11.13a8.49,8.49,0,0,0-9.29-3.36Z" style="fill:#d2d2db"/><path d="M613,287.68H594c2.33-2.76,2-6,2.08-9.07.09-9-.08-18-.17-27.05,0-2.67-1.31-4.84-3.12-7.11,5.78.28,11.36.71,16.76-.91,1,1.11.16,2.24.38,3.44.81-.32,1.63-.61,2.43-.95a32.43,32.43,0,0,1,15.7-2.6,21,21,0,0,1,13.77,6.63,7.36,7.36,0,0,1,1.74,3.31,32.16,32.16,0,0,1,.9,6.61c.11,6.78,0,13.56,0,20.35a6.87,6.87,0,0,0,1,4.28,32.38,32.38,0,0,0,3,3.09H627.62a2.71,2.71,0,0,1,.43-.62,6.34,6.34,0,0,0,2.21-5.35c-.06-5.37-.06-10.74-.07-16.1,0-1.57.07-3.13,0-4.7a9.62,9.62,0,0,0-11.33-9.15,19.78,19.78,0,0,0-4.51,1.15,5.78,5.78,0,0,0-3.91,5.88q.13,10.29,0,20.57A13.19,13.19,0,0,0,613,287.68Z" style="fill:#d2d2db"/><path d="M407.12,244.33c5.75.1,11.26.68,16.84-.94v3.46c1-.34,1.7-.55,2.4-.86a33.43,33.43,0,0,1,12.32-2.84,22.25,22.25,0,0,1,16.89,6.27,9.79,9.79,0,0,1,2.8,6.18,58.83,58.83,0,0,1,.34,6.9c0,5.66-.14,11.32-.17,17a15.58,15.58,0,0,0,.4,3.1c.44,2.17,1.85,3.66,4,5H441.67a4.07,4.07,0,0,1,.45-.58,6.06,6.06,0,0,0,2.39-5.25q0-10,0-19.9c0-7.1-5.24-11.09-11.9-10.2a16,16,0,0,0-4.26,1.25,5.61,5.61,0,0,0-3.67,5.14c0,.82-.09,1.64-.09,2.46,0,5.74,0,11.47,0,17.21,0,3.4.38,6.68,2.57,9.75a36.47,36.47,0,0,1-6.29.22c-2,0-4,0-6,0h-6.5a9.36,9.36,0,0,0,.64-1.3,16.28,16.28,0,0,0,1.09-4c.14-6.93.11-13.86.13-20.78,0-2.69-.1-5.37,0-8C410.26,249.8,410,248.46,407.12,244.33Z" style="fill:#d2d2db"/><path d="M168.08,257.89v21.72c4.56,1.4,9.08,2.35,13.82,1.26,4.26-1,8.51-2,12.8-4.62-1.56,4.19-2.92,7.84-4.24,11.4-3.8.45-39.21.37-41.45-.07,0-.14,0-.32.12-.41,2.57-2.83,3.23-6.24,3.22-9.94q-.06-21.12,0-42.26a9.72,9.72,0,0,0-2.68-7.31,5,5,0,0,1-.5-.72c2-.46,35.05-.46,37.15,0v10c-1-.65-1.63-1.09-2.28-1.54a9.54,9.54,0,0,0-5.63-1.83c-3.36,0-6.71,0-10.33,0-.18,5.7-.29,11.37-.13,17.27h12.66c.66,1.68.37,3.25.41,4.78s0,3,0,4.56a39.35,39.35,0,0,0-6.27-2.27C172.7,257.59,170.49,257.89,168.08,257.89Z" style="fill:#d2d2db"/><path d="M592.23,283a16.79,16.79,0,0,1-3.93,5.54,25.06,25.06,0,0,1-13.19-.7,8.34,8.34,0,0,1-5.84-8.32c.09-3.13.11-6.26.13-9.39,0-1.1-.11-2.19-.16-3.28a8.36,8.36,0,0,0-4.35.35c-2.17.49-4.31,1.13-6.45,1.75a7.45,7.45,0,0,0-1.62.75c-2.22,1.29-4.11,2.89-3.93,5.74a7.38,7.38,0,0,0,4.17,6.43c3,1.52,6.05,1.21,9.49.55a35.84,35.84,0,0,1-3.47,5.22,5.48,5.48,0,0,1-2.26,1.37,16.75,16.75,0,0,1-8.8.55c-4.42-.77-8.58-2.17-11.62-5.63-3.28-3.71-3.91-8.08-2.37-12.74a7.83,7.83,0,0,1,3.1-4,21.15,21.15,0,0,1,9-3.65c3.75-.56,7.5-1.12,11.23-1.83a23.42,23.42,0,0,0,4.86-1.59c1.63-.71,3-1.87,2.76-3.89s-1.15-3.75-3.24-4.43a17.46,17.46,0,0,0-3.92-.78c-5.13-.38-10.06.68-14.94,2.12-.68.2-1.38.35-2.52.65a98.08,98.08,0,0,1,7.71-9.52c4.42-.1,8.95-.27,13.49-.26a38.69,38.69,0,0,1,6.44.62c7.82,1.33,11.5,5.73,11.53,13.66,0,5.15,0,10.29,0,15.44,0,.52,0,1,0,1.56.06,4.47,2.18,6.85,6.64,7.46C590.79,282.87,591.37,282.93,592.23,283Z" style="fill:#d2d2db"/><path d="M202.62,253.69c2.32-3.48,5-6.22,7.46-9.23,5.36-.26,10.62-.87,15.9-.23a52,52,0,0,1,6.6,1,11.49,11.49,0,0,1,8.94,10.69c.08,1.33.19,2.67.19,4,0,5.15.08,10.29,0,15.43-.07,4.4,2.13,6.82,6.85,7.48.51.07,1,.12,1.78.2a41.42,41.42,0,0,1-4,5.55,24.27,24.27,0,0,1-12.18-.35c-3.07-.89-5.54-2.61-6.39-5.93a11.48,11.48,0,0,1-.31-2.87c0-3.13.07-6.26.08-9.39,0-1-.08-2.05-.13-3.05-1.44-.64-2.63,0-3.83.25a24.19,24.19,0,0,0-9,3.26c-4.31,2.8-4.31,8.16,0,11a9.84,9.84,0,0,0,7,1.52c1-.15,2-.39,3.06-.6.45.89-.11,1.47-.5,2.05A11.46,11.46,0,0,1,214.12,290a24.16,24.16,0,0,1-11.78-3,11.4,11.4,0,0,1-5.75-6.55,16.74,16.74,0,0,1-.63-7.5,8.43,8.43,0,0,1,3.78-5.84,21.2,21.2,0,0,1,9.49-3.61c4.42-.5,8.91-.8,13.17-2.21a13.46,13.46,0,0,0,3.55-1.79,3.25,3.25,0,0,0,1.12-4.16,5.54,5.54,0,0,0-4.23-3.86,25.52,25.52,0,0,0-9.54-.12C209.88,251.93,206.51,252.83,202.62,253.69Z" style="fill:#d2d2db"/><path d="M371.52,265.55c-5.5.47-10.92-.19-16.34-.09s-10.7,0-16,0c-1.05,5.18,1.83,11.25,6.74,14.14,7.68,4.53,15.44,4.18,23.21.2a4.79,4.79,0,0,1,1.92-.68c-1.44,2.65-2.81,5.35-4.37,7.93a3.82,3.82,0,0,1-2.14,1.48,47.85,47.85,0,0,1-7,1.46,43.34,43.34,0,0,1-19.13-2.17,25.26,25.26,0,0,1-10.15-6.31,19.73,19.73,0,0,1-5.52-12.39c-.39-4.51,0-8.89,2.06-13A22.81,22.81,0,0,1,337.45,245a29.2,29.2,0,0,1,21.18-.27A19.79,19.79,0,0,1,371.52,265.55Zm-16.33-6.1a12.79,12.79,0,0,0-2.61-6.84,5.75,5.75,0,0,0-5.21-2.46,7.68,7.68,0,0,0-7,5.06c-.58,1.31-1.24,2.68-.78,4.24Z" style="fill:#d2d2db"/><path d="M250.77,278.68c4,1.11,7.38,2.11,10.82,3a18.54,18.54,0,0,0,11.64-.24,10.09,10.09,0,0,0,2.87-1.64,3.87,3.87,0,0,0,.18-6.05,10.63,10.63,0,0,0-4.9-2.53,48.81,48.81,0,0,1-11.89-4.44,24.13,24.13,0,0,1-4.69-3.36,10.08,10.08,0,0,1-2-12.28,13.79,13.79,0,0,1,7.45-6.73,34.58,34.58,0,0,1,16.24-2.11c3.17.25,6.32.75,9.64,1.15.18,2.88.08,5.53.08,8.41-.77-.27-1.36-.46-1.94-.69-4.45-1.79-9-2.59-13.76-1.42-2.21.54-3.1,1.51-3.3,3.38a2.7,2.7,0,0,0,1.16,2.72,12.46,12.46,0,0,0,2.54,1.37q3.35,1.23,6.77,2.27a30.61,30.61,0,0,1,9.28,4.28,12.79,12.79,0,0,1,5.06,6.62,13.78,13.78,0,0,1-5.32,15,23.93,23.93,0,0,1-9.05,3.65,44.28,44.28,0,0,1-19.27-.33A15.75,15.75,0,0,1,256,288a4,4,0,0,1-2.45-2.41C252.76,283.41,251.81,281.25,250.77,278.68Z" style="fill:#d2d2db"/><path d="M672.46,288.11H651.79c2.93-2.56,3.3-5.87,3.31-9.26,0-9.91,0-19.82,0-29.73,0-5.74,0-11.48,0-17.22,0-1-.09-2.08-.13-3.12a5.62,5.62,0,0,0-1.91-4.42c.78-.07,1.25-.14,1.72-.16,3.64-.16,7.3-.21,10.93-.52a21.52,21.52,0,0,0,4.29-1.3v2.74c0,18.41,0,36.82,0,55.22a9.67,9.67,0,0,0,2.18,6.84,2.28,2.28,0,0,1,.3.58A1.1,1.1,0,0,1,672.46,288.11Z" style="fill:#d2d2db"/><path d="M318.16,289.05c-5.09.29-10,.31-14.57-2-3.38-1.7-5.78-4.17-5.94-8.24-.09-2.23-.31-4.45-.31-6.68,0-6.27.09-12.53.15-18.79v-2.24h-6.08l-.32-2.79c9.71-1.54,11.82-8.59,12.56-16.75,1.33-.57,2.75-.24,4.13-.3s2.67,0,4.23,0c.33,2.24,0,4.38.05,6.51s0,4.29,0,6.68h12a75.08,75.08,0,0,1-.07,8.61,19.9,19.9,0,0,0-12-2.26,11.11,11.11,0,0,0-.21,1.54c-.06,6.41-.1,12.82-.16,19.23a29.63,29.63,0,0,0-.13,3.11,7.54,7.54,0,0,0,5.27,6.83c1.59.58,3.27.94,5.11,1.46Z" style="fill:#d2d2db"/><path d="M389.65,243.27c.1,1,.16,1.74.26,2.75,4.44-2.78,9.15-2.9,13.93-2.54.48,1.53.58,6.16.18,9.05-.63-.22-1.24-.4-1.83-.62a11.9,11.9,0,0,0-6.1-.86,7.58,7.58,0,0,0-5.79,4.39,4.39,4.39,0,0,0-.36,1.94q0,11.3,0,22.58a8.78,8.78,0,0,0,2.21,5.71c.51.62,1.08,1.21,1.64,1.83-1.63.42-19.46.52-22.1.11.3-.31.53-.59.79-.83a8.45,8.45,0,0,0,2.7-5.71c.06-.67.07-1.34.07-2,0-8.35,0-16.69,0-25,0-3.17-.16-6.25-2.34-9.27C378.7,244.63,384.22,245.3,389.65,243.27Z" style="fill:#d2d2db"/><path d="M670.83,264c1.31-1.47,2.53-2.85,3.77-4.22,2.3-2.54,4.6-5.08,6.93-7.59,1.84-2,3.08-4.17,2.61-7h17.08l-15.14,18.08,5.95,7.29c3.15,3.86,6.26,7.76,9.49,11.56,1.81,2.13,3.82,4.07,5.85,6.22-1.4.06-2.78.17-4.16.15-2.9,0-5.8-.26-8.7-.2a8.66,8.66,0,0,1-7.23-3.28c-1.86-2.23-3.67-4.5-5.46-6.79C678.2,273.56,674.62,268.9,670.83,264Z" style="fill:#d2d2db"/></g></svg>