<svg id="Layer_1" data-name="Layer 1" xmlns="http://www.w3.org/2000/svg" viewBox="0 0 750 500"><title>f5</title><path d="M364.09,97.21c4.22.46,8.44.8,12.64,1.4q55.63,8,92.16,50.69c.29.33.54.69,1.21,1.58-3.55-.51-6.6-.76-9.56-1.4a350,350,0,0,0-42.73-6.12c-8.46-.74-16.94-1.13-25.41-1.81-1.75-.14-2,.87-2.37,2q-9.34,28-18.69,56-8.83,26.52-17.62,53c-.25.78-.46,1.56-.77,2.6,4.28.46,8.32.84,12.36,1.34C384,258.91,402.53,262,420,269.33c9.11,3.83,17.56,8.72,23.71,16.69,11.44,14.83,7.8,34.61-8.17,45.14-14.13,9.32-34.65,8.54-47.22-2.13a46.71,46.71,0,0,1-7.89-9.3c-5.46-7.93-10.62-16.07-15.91-24.11-1.5-2.26-2.73-2.56-4.82-.79-2.38,2-4.55,4.24-6.79,6.39-2.47,2.35-4.93,4.72-7.39,7.08-2.14,2.06-2.48,3.59-1.31,6.33,3.54,8.3,7.18,16.55,10.62,24.89a5.8,5.8,0,0,0,4.29,3.63c5.74,1.41,11.46,2.94,17.27,4A149.61,149.61,0,0,0,410,349.36c21.22-1.15,40.22-8.26,56.58-22,14.12-11.84,21.87-27.12,24-45.27,1.94-16.73-.73-32.53-10.75-46.52a69.41,69.41,0,0,0-24.76-21c-13.82-7.24-28.69-10.94-44-13.05-6.38-.88-12.81-1.31-19.22-2a13.83,13.83,0,0,1-1.49-.37c.6-2,1.15-4,1.74-5.92,1.45-4.63,3-9.23,4.34-13.88.45-1.53,1.14-2,2.73-1.88,16.05,1,32.1,1.9,48.13,3,7.63.55,15.23,1.59,22.84,2.48,3.11.36,3.12.42,3.68-2.59q1.61-8.72,3.28-17.43a3.61,3.61,0,0,1,.79-1.74c25.33,39.31,32.11,81.42,17.85,126.19a143.39,143.39,0,0,1-118.09,99c-50.13,6.42-92.77-9.55-127.58-46.4a690.33,690.33,0,0,0,87,7.9c0-3.25.08-6.26-.09-9.26,0-.43-1.23-1-2-1.14-6.5-1-13-1.87-19.54-2.82-.89-.13-1.73-.57-2.61-.78-5-1.22-7.2-4.66-7.48-9.56-.4-7-1-14.08-1.11-21.12q-.69-32.88-1.11-65.75c-.07-4.63.24-9.25.23-13.88,0-1.65.44-2.23,2.18-2.23,9.41,0,18.82-.09,28.22-.3A15.11,15.11,0,0,0,339.2,220c4.26-1.79,8.43-3.8,12.59-5.82a2.58,2.58,0,0,0,1.37-1.69c.14-3.4.07-6.81.07-10.71l-49.24.73c0-1.79-.06-3.44,0-5.08.55-11.43.78-22.9,1.81-34.29.87-9.56,7.16-15.87,19.09-13.38,7.89,1.65,15.11,4.89,22.29,8.35,2.87,1.38,5.67,2.89,8.56,4.24,4.66,2.17,7.06,1.15,9.15-1.85,1.82-2.6,4.12-4.85,6.17-7.29s1.77-4-.67-5.9c-3.67-2.82-7.49-5.46-10.93-8.53-5.18-4.62-11.18-6.47-18-6.36-25.41.39-48.8,7.12-69.26,22.56-9.5,7.16-17.12,16.08-20.33,27.78-1.61,5.85-1.81,12.1-2.62,18.17-.19,1.42-.26,2.86-.39,4.49l-11.38,1a51.1,51.1,0,0,1-5.89.45c-2.22-.06-3.1.71-3.14,3-.1,4.68-.44,9.35-.69,14.31l20-.95c0,4.42,0,8.5,0,12.57.17,13.5,0,27,.66,40.49.67,14.38,2.07,28.73,3.14,43.1.07.9,0,1.82,0,2.73-.06,3.4-1.12,4.72-4.44,5.63-.37.1-.74.17-1.11.27-3.92,1.08-6.44,0-8.88-3.68a151.55,151.55,0,0,1-20.1-44.16,144.08,144.08,0,0,1-4.68-35.43c-.18-16.1,1.55-31.85,6.92-47Q247.58,118,330.41,100c6-1.29,12.17-1.58,18.26-2.35.74-.09,1.48-.26,2.22-.39Z" style="fill:#d2d2db;fill-rule:evenodd"/><path d="M516.55,315.89a11,11,0,1,1-.17,21.92,11,11,0,0,1,.17-21.92M525.83,327a9.42,9.42,0,0,0-9.4-9.61,9.48,9.48,0,0,0,0,18.95,9.31,9.31,0,0,0,9.41-9.34" style="fill:#d2d2db;fill-rule:evenodd"/><path d="M520,326.88c.57,2,1.07,3.77,1.57,5.53l-.85.59c-.45-.41-1.2-.76-1.31-1.25-.83-3.66-1-3.86-5.19-3.6a23.67,23.67,0,0,1,0,3.26c-.07.51-.63.95-1,1.43-.37-.44-1.05-.86-1.06-1.3-.09-3.47,0-6.94,0-10.75,1.82,0,3.46,0,5.09,0s3.27.19,4,2a3.11,3.11,0,0,1-1.16,4.08m-5.63-5.22v5.45a38.33,38.33,0,0,0,4.65-1.77,2.36,2.36,0,0,0,0-2,35.92,35.92,0,0,0-4.65-1.7" style="fill:#d2d2db;fill-rule:evenodd"/></svg>