<svg id="Layer_1" data-name="Layer 1" xmlns="http://www.w3.org/2000/svg" viewBox="0 0 750 500"><title>flexport</title><g id="HSUp3G"><path d="M502,204.05a4.1,4.1,0,0,0,.79.27,44.72,44.72,0,0,1,27.91,13.45A44.26,44.26,0,0,1,543.49,244a44.75,44.75,0,0,1-9.65,34.68,44.09,44.09,0,0,1-27.91,16.54c-14.54,2.43-27.5-1.22-38.56-11A43.92,43.92,0,0,1,452.57,257c-2.08-14,1.55-26.57,10.83-37.29a44.43,44.43,0,0,1,26.73-15c1.18-.2,2.35-.44,3.53-.66ZM529.88,250A31.94,31.94,0,1,0,498,282,31.93,31.93,0,0,0,529.88,250Z" style="fill:#d2d2db"/><path d="M707.37,218.67a13.46,13.46,0,0,1-2.17.36c-8.41,0-16.82,0-25.23,0-.67,0-1.35.1-1.89.15a3.37,3.37,0,0,0-.53,2.5q0,12.53,0,25.06v45.76c0,.68-.06,1.36-.09,2-1.3.43-11.78.56-14.43.21a7,7,0,0,1-.29-1.07c-.05-.52,0-1,0-1.57q0-35.06,0-70.12c0-.8-.07-1.6-.09-2.23-.73-.86-1.52-.68-2.26-.68h-27c-.49-1.51-.51-11.84,0-13.5.6,0,1.27-.08,1.94-.08h43.68q13.13,0,26.27,0a16.37,16.37,0,0,1,2.18.32Z" style="fill:#d2d2db"/><path d="M571.48,262.14c-.07.81-.17,1.48-.17,2.15q0,14.1,0,28.19v2c-1.35.5-10.73.66-14.54.29a9.17,9.17,0,0,1-.37-1.18,8.13,8.13,0,0,1,0-1.21V207.79c0-.72.11-1.44.18-2.33h2.08c12.81,0,25.63-.06,38.45,0,9.45.06,17,4.06,22.63,11.59a26.36,26.36,0,0,1,5.37,18.29c-.9,11.37-6.74,19.46-17.07,24.31-.54.26-1,.6-1.73,1,.43.63.73,1.12,1.07,1.56q8.37,10.89,16.76,21.77a2.91,2.91,0,0,1,.79,1.87c0,2.67,0,5.34,0,8a5,5,0,0,1-.14.78,5.76,5.76,0,0,1-1.14.23c-2.78,0-5.57,0-8.35,0a2.65,2.65,0,0,1-2.28-1.33q-6-7.86-12.08-15.71c-3.79-4.92-7.59-9.82-11.35-14.75a2.67,2.67,0,0,0-2.34-1.19c-4.76,0-9.52,0-14.27,0A11.71,11.71,0,0,0,571.48,262.14Zm.2-13.95c.68,0,1.19.08,1.7.08,7.54,0,15.07,0,22.61,0a17.32,17.32,0,0,0,3.44-.36,14.82,14.82,0,0,0,12-14.36c-.09-5.15-3.45-11.9-10.67-13.83a19.32,19.32,0,0,0-4.79-.64c-7.48-.06-15,0-22.43,0-.73,0-1.54-.18-2.12.68a2.24,2.24,0,0,0-.12.57q0,13.22,0,26.43A7.06,7.06,0,0,0,571.68,248.19Z" style="fill:#d2d2db"/><path d="M264.19,205.57c.47,1.33.52,11.6.06,13.39-.61,0-1.28.08-1.95.08H217.76c-2.87,0-2.87,0-2.87,2.91,0,6,0,11.94,0,17.92a20.8,20.8,0,0,0,.23,2.13h43.42a6.15,6.15,0,0,1,.42,1.52c0,3.65,0,7.31,0,11a5.92,5.92,0,0,1-.29,1.11c-.71,0-1.39.07-2.08.07h-39c-.79,0-1.58.1-2.48.17a9,9,0,0,0-.26,1.47q0,11.31,0,22.61a7.27,7.27,0,0,0,.13.86,7.79,7.79,0,0,0,1.18.42,9.22,9.22,0,0,0,1.39,0h46.51c.51,1.28.73,8.42.44,12.28a8.71,8.71,0,0,1-.35,1.3H200.39a10.85,10.85,0,0,1-.4-1.18,5.17,5.17,0,0,1,0-1q0-42.46,0-84.91c0-.67.09-1.34.15-2.1Z" style="fill:#d2d2db"/><path d="M318.33,262c-.5.48-1,.87-1.38,1.33q-8.43,9.84-16.82,19.71c-3,3.53-6,7-9,10.6a3.26,3.26,0,0,1-2.84,1.28c-2.78-.08-5.56,0-8.54,0a7.46,7.46,0,0,1-.39-1.6c0-2.61,0-5.22,0-7.83a3.08,3.08,0,0,1,.91-2.17q8-9.31,15.9-18.65l10.74-12.56c.15-.17.28-.36.43-.54,1-1.28,1-1.55-.06-2.85-.77-.93-1.58-1.85-2.37-2.77q-12.3-14.42-24.61-28.83a3.49,3.49,0,0,1-.95-2.51c.05-2.43,0-4.87,0-7.31a15.78,15.78,0,0,1,.19-1.7h10.56c9.37,10.84,18.62,21.87,28.14,32.89.53-.5.88-.77,1.17-1.11q13.05-15.26,26.06-30.56a3.24,3.24,0,0,1,2.81-1.33c2.49.07,5,0,7.48,0,.51,0,1,.06,1.48.08.44,1.29.56,7.17.23,10.27l-28.65,33.6a1.85,1.85,0,0,0,.49,2.08q11.19,13.06,22.36,26.18l5.93,7c0,3.28.12,6.62-.1,10a11,11,0,0,1-1.32.21c-2.72,0-5.45,0-8.17,0a2.65,2.65,0,0,1-2.25-1.05q-9-10.6-18.05-21.17c-2.78-3.26-5.56-6.54-8.35-9.79A9.29,9.29,0,0,0,318.33,262Z" style="fill:#d2d2db"/><path d="M372.76,205.46h2c13.11,0,26.22-.09,39.33,0,12.52.11,25.32,9,27.91,23.2a28.21,28.21,0,0,1-20.83,32.41,28.91,28.91,0,0,1-7.41.83H390c-.73,0-1.45.13-2.3.2,0,.88-.11,1.56-.12,2.24v28.19c0,.68-.06,1.35-.09,2-1.36.4-12.1.5-14.46.16a5.76,5.76,0,0,1-.35-1,8.26,8.26,0,0,1,0-1.22q0-42.36,0-84.74C372.62,207,372.7,206.36,372.76,205.46Zm15.12,42.73c.56,0,.79.08,1,.08H414a14.87,14.87,0,0,0,6.05-1.42c8.07-3.62,11.19-12.91,6.81-20.4A14.3,14.3,0,0,0,414,219.08c-8.24-.13-16.48,0-24.71,0-1.44,0-1.77.33-1.77,1.73q0,12.87,0,25.75A9.8,9.8,0,0,0,387.88,248.19Z" style="fill:#d2d2db"/><path d="M57.57,294.56c-1.59.38-11.13.48-14.52.21a8.9,8.9,0,0,1-.39-1.17,6,6,0,0,1,0-1q0-42.45,0-84.9c0-.67.1-1.34.16-2.1h64.05a2.9,2.9,0,0,1,.35.92c0,3.88,0,7.77,0,11.65a3.56,3.56,0,0,1-.24.83c-.66,0-1.33.08-2,.08H60.43c-2.86,0-2.86,0-2.86,2.91,0,6,0,12,0,17.92a20.22,20.22,0,0,0,.23,2.13h43.42a6.63,6.63,0,0,1,.42,1.52c0,3.66,0,7.31,0,11a5.23,5.23,0,0,1-.29,1.11c-.71,0-1.39.07-2.07.07h-39c-.79,0-1.58.1-2.55.17-.07.89-.19,1.61-.19,2.34q0,17.13,0,34.27Z" style="fill:#d2d2db"/><path d="M120.76,205.46H135.4c.26,3.78.09,7.36.13,10.93s0,7.07,0,10.61v53.7a7.78,7.78,0,0,0,1.29.49,8,8,0,0,0,1.39,0h46.5c.57,1.28.74,6.17.48,12.07a10.2,10.2,0,0,1-.3,1.5H121a6.83,6.83,0,0,1-.38-1.13,10.7,10.7,0,0,1,0-1.39q0-42.18,0-84.38C120.62,207.16,120.7,206.43,120.76,205.46Z" style="fill:#d2d2db"/></g></svg>