<svg id="Layer_1" data-name="Layer 1" xmlns="http://www.w3.org/2000/svg" viewBox="0 0 750 500"><title>trello</title><g id="Page-1"><g id="Logos"><g id="Group"><g id="Trello-Logo"><g id="Trello-Logo---Blue---Flat"><g id="Logo"><path id="Type" d="M558.19,271.34c-9.15,3.73-16.37,16.61-27.36,23.94A3.65,3.65,0,0,1,529,296c-.91,0-2-.91-2-5,0-14.07,4.54-20.88,8.4-30.87,13.4-34.74,36.33-64.48,56.76-96.95a15,15,0,0,0,2.5-8.17c0-2.5-.91-4.54-2-7-.9-2-5-3.86-9.53-3.86-2.5,0-4.77.23-7.72.23-10.67,0-12.94,15.67-15.44,19.75-17,28.84-36.55,64.48-46.54,89.68-2.19,5.65-4.56,11.3-6.35,17.1-9.88,2.85-17.27,16.73-28.84,24.45a3.65,3.65,0,0,1-1.82.68c-.9,0-2-.91-2-5,0-14.07,4.54-20.88,8.4-30.87,13.4-34.74,36.33-64.48,56.76-96.95A15,15,0,0,0,542,155c0-2.5-.91-4.54-2.05-7-.91-2-5-3.86-9.53-3.86-2.5,0-4.77.23-7.72.23-10.67,0-12.94,15.67-15.44,19.75-17,28.84-36.55,64.48-46.54,89.68-.79,2.05-1.61,4.1-2.42,6.15l-.76.43c-11.58,6.81-21.34,18.85-35.41,27-2.73,1.59-11.13,7.49-17.94,7.49a9.37,9.37,0,0,1-4.31-1.13c-2-.91-4.09-5.23-4.09-6.59,0-1.13.23-1.36,2.5-2.72,20-12,36.32-29.29,50.4-46.54,5.22-6.36,12-18.85,12-27.93,0-5.9-2-12.71-9.08-15.21A47,47,0,0,0,436.39,192a35.72,35.72,0,0,0-25.88,10.67c-5.09,5.43-10,11-14.58,16.77-4.77-4.12-11.5-5.87-17.89-5.87-7.49,0-21.57,9.3-28.83,14.75-1.14.91-1.82,1.36-2.27,1.36-.23,0-.46-.22-.46-.68a35.94,35.94,0,0,0,.46-5.9,23.48,23.48,0,0,0-3.63-12.26c-.69-1.13-4.77-3.63-9.77-3.63-6.13,0-11.8,2.95-11.8,6.13,0,2.27,2,3.18,2,5.22a72,72,0,0,1-2.27,11.35c-3.86,14.53-8.63,28.83-13.62,43.14-2.72,7.94-11.81,15-11.81,23.61,0,2.72,1.82,6.35,4.32,9.08,4.08,4.54,6.58,6.13,10.21,6.13a7.59,7.59,0,0,0,5-1.82,17.35,17.35,0,0,0,6.13-10c5.9-26.79,22.93-45,41.77-57,6.36-4.09,15-8.4,16.12-8.4a22.07,22.07,0,0,1,4.82,1.06A110.43,110.43,0,0,0,372.14,263a32.94,32.94,0,0,0-1.36,9.31,49,49,0,0,0,3,15.89c2.5,7.26,6.58,13.62,12.26,16.57,10.44,5.45,17.93,8.4,24.74,8.4a18.67,18.67,0,0,0,10-2.5c14.92-8.44,24.07-14.84,30.68-20.53.18,5.77,1.32,9,5.42,13.27s10.44,8.17,18.84,10a24.85,24.85,0,0,0,4.09.45c9.61,0,18.86-7.81,26-15.55a20.72,20.72,0,0,0,3.75,5.11c4.09,4.31,10.44,8.17,18.84,10a24.85,24.85,0,0,0,4.09.45c11.26,0,22-10.72,29.47-19.49,2.48,5.13,9.41,10.21,17.75,14.27a17.3,17.3,0,0,0,7.5,1.82c9.76,0,16.8-7.95,22.24-13.85,14.08-15.44,21.8-34.51,27.7-58.58.46-1.81,1.14-2.49,2-2.49a57.14,57.14,0,0,0,8.4-.46c6.13-.91,10.9-3,16.58-3.86,3.4-.68,2.95-1.81,6.13-2.95,2.27-.91,4.08-1.81,4.08-4.08,0-3.86-7-7.95-17.7-7.95-8.4,0-13.4.68-16.8.68-5.23,0-6.59-1.59-10-10.44h0c-.68-1.82-1.37-2.73-3.41-4.54A23.81,23.81,0,0,0,611,196.52c-11.35,0-21.11,11.58-27.92,21.34-1.59,2.27-3.86,4.09-5.45,6.58C568.25,238.47,559.29,254.29,558.19,271.34ZM267.93,194c5.68,0,8.86-.45,9.54-.45s1.13.22,1.13.9c0,.46-.22,1.14-1.81,4.55C262.94,228.76,253.4,259,245,292.32a37.4,37.4,0,0,0-.91,7.72c0,3.18.91,6.59,4.09,8.4,6.13,3.64,11.13,5.23,14.53,5.23,5,0,7.49-3.18,7.49-8.41a75.61,75.61,0,0,1,.91-12.94C277.47,259,287,232.84,301.76,205.6c7-12.94,7.95-13.62,7.95-14.76A3.59,3.59,0,0,0,309,189a142.17,142.17,0,0,1,30-3.41c1.14,0,5.68,1.59,6.36,2.27,1.59,1.59,3.18,3.18,5.9,3.18a18.22,18.22,0,0,0,7.49-2.5c3.18-2.27,4.77-4.77,4.77-8.85,0-3.86-14.3-13.4-24.29-13.4A173.12,173.12,0,0,0,305.39,170c-4.54.9-20.88,3.4-32.69,3.4-11.35,0-10.67-1.59-15.44-1.59a6.76,6.76,0,0,0-5.22,2.5c-1.13,1.13-1.82,5.67-1.82,9.76,0,2,0,3.63,1.14,5,3.4,4.08,10,5,16.57,5Zm168.23,18.39c0,2-.68,3.41-3.4,7.72s-1.59,4.31-5,8.85c-6.58,8.86-14.76,17.71-25.43,27.47-2.95,2.73-3.4,2.73-3.86,2.73a.73.73,0,0,1-.68-.68c0-.68.23-1.59,2.5-6.36,7-14.76,15.67-24.52,25.2-34,5.22-5.23,8.4-7,9.54-7,.68,0,1.13.22,1.13,1.36Zm174.59,5.9c.22,0,.45.23.68.68a4.78,4.78,0,0,0,1.81,2.27c.91.69.91,3.86.91,6.36,0,22-12.48,40.19-24.74,58.57-2.73,4.09-4.32,4.77-5.68,4.77-1.14,0-3-2.95-3.63-4.77a21.83,21.83,0,0,1-1.14-6.58c0-17.71,16.8-44,27.93-58.57,1.81-2.5,3.18-2.73,3.86-2.73Z" style="fill:#d2d2db;fill-rule:evenodd"/><g id="Mark"><rect id="Board" x="75.69" y="169.16" width="143.33" height="143.33" rx="17.92" style="fill:#d2d2db"/><rect id="Right-List" x="156.67" y="187.79" width="43.71" height="62.71" rx="8.6" style="fill:#fff"/><rect id="Left-List" x="94.32" y="187.79" width="43.71" height="98.54" rx="8.6" style="fill:#fff"/></g></g></g></g></g></g></g></svg>