<?xml version="1.0" standalone="no"?>
<!DOCTYPE svg PUBLIC "-//W3C//DTD SVG 20010904//EN"
 "http://www.w3.org/TR/2001/REC-SVG-20010904/DTD/svg10.dtd">
<svg version="1.0" xmlns="http://www.w3.org/2000/svg"
 width="256.000000pt" height="256.000000pt" viewBox="0 0 256.000000 256.000000"
 preserveAspectRatio="xMidYMid meet">
<metadata>
Created by potrace 1.11, written by Peter Selinger 2001-2013
</metadata>
<g transform="translate(0.000000,256.000000) scale(0.100000,-0.100000)"
fill="#000000" stroke="none">
<path d="M1030 2506 c-187 -43 -301 -91 -451 -191 -165 -110 -328 -295 -419
-475 -25 -49 -102 -256 -101 -270 1 -6 -10 -68 -17 -95 -2 -11 -6 -87 -7 -170
-3 -132 2 -196 19 -270 21 -92 29 -118 51 -179 29 -80 67 -160 78 -164 4 -2 7
-9 7 -16 0 -20 122 -185 187 -252 126 -131 247 -214 433 -297 40 -18 180 -62
225 -71 17 -3 44 -9 60 -13 17 -4 340 -8 718 -10 530 -3 692 -1 703 8 13 11
15 106 11 703 -1 380 -6 702 -10 716 -4 14 -12 49 -18 79 -31 149 -122 349
-219 480 -51 69 -163 188 -219 234 -118 96 -295 188 -442 230 -120 35 -145 38
-329 42 -140 2 -179 -1 -260 -19z"/>
</g>
</svg>
