<svg id="Layer_1" data-name="Layer 1" xmlns="http://www.w3.org/2000/svg" xmlns:xlink="http://www.w3.org/1999/xlink" viewBox="0 0 750 500"><defs><clipPath id="clip-path"><path d="M331.62,247.64c0,8.47-.89,12.7-7,12.7-6.42,0-7.43-3.85-7.43-11.54V181.18H267.35v79.43c0,13.81,3.33,25.19,11.12,34.14s17.44,13.4,29.47,13.4c8.14,0,16.32-2.5,24.8-7.51-4.67,17.71-15.18,26.56-30.95,26.56-4.93,0-9.65-1.38-17.43-4.15a94.6,94.6,0,0,1-17-7.95v41.26s9.59,6,17,8.81a75.5,75.5,0,0,0,27,5.18c20.53,0,37.7-7.86,52.17-23.58,12.12-13.22,17.86-30.59,17.86-52.09V181.18H331.62v66.46ZM444.55,130.26c-59.11,5.32-55.09,68.53-55.09,68.53V309.32c32.14,0,48.2-15.42,48.2-36.78V258.1h23.71V210H437.66v-6.43c0-7.52,2-13.3,5.33-17.37s8-6,14-6.07c4,0,11.26,1.36,12.73,7.08l.11.45v50.11c0,18.4,3.46,33.18,10.92,44.32A62.55,62.55,0,0,0,504,302.85a65.8,65.8,0,0,0,31,7.63c1.21,0,3.42,0,5.46-.13V259.43c-10.19,0-14.56-1.88-17.8-5.77s-4.82-11.59-4.82-21.2h17.34V181.18H518.79c-3.09-19.24-14.64-48.2-57.48-51.43,0,0-5.07-.19-9-.05-3.1.11-7.72.56-7.72.56ZM276.15,305.32l0,.08a65.06,65.06,0,0,1-16.87,7v.26l-.17-.23a41.18,41.18,0,0,1-8.69,1,37.52,37.52,0,0,1-29.73-13.52c-7.86-9-11.22-20.5-11.22-34.44V133h49.81V265.46c0,13.94,3.32,25.42,11.19,34.44a43.47,43.47,0,0,0,5.64,5.42Z" style="fill:#d2d2db;clip-rule:evenodd"/></clipPath></defs><title>lyft</title><path d="M331.62,247.64c0,8.47-.89,12.7-7,12.7-6.42,0-7.43-3.85-7.43-11.54V181.18H267.35v79.43c0,13.81,3.33,25.19,11.12,34.14s17.44,13.4,29.47,13.4c8.14,0,16.32-2.5,24.8-7.51-4.67,17.71-15.18,26.56-30.95,26.56-4.93,0-9.65-1.38-17.43-4.15a94.6,94.6,0,0,1-17-7.95v41.26s9.59,6,17,8.81a75.5,75.5,0,0,0,27,5.18c20.53,0,37.7-7.86,52.17-23.58,12.12-13.22,17.86-30.59,17.86-52.09V181.18H331.62v66.46ZM444.55,130.26c-59.11,5.32-55.09,68.53-55.09,68.53V309.32c32.14,0,48.2-15.42,48.2-36.78V258.1h23.71V210H437.66v-6.43c0-7.52,2-13.3,5.33-17.37s8-6,14-6.07c4,0,11.26,1.36,12.73,7.08l.11.45v50.11c0,18.4,3.46,33.18,10.92,44.32A62.55,62.55,0,0,0,504,302.85a65.8,65.8,0,0,0,31,7.63c1.21,0,3.42,0,5.46-.13V259.43c-10.19,0-14.56-1.88-17.8-5.77s-4.82-11.59-4.82-21.2h17.34V181.18H518.79c-3.09-19.24-14.64-48.2-57.48-51.43,0,0-5.07-.19-9-.05-3.1.11-7.72.56-7.72.56ZM276.15,305.32l0,.08a65.06,65.06,0,0,1-16.87,7v.26l-.17-.23a41.18,41.18,0,0,1-8.69,1,37.52,37.52,0,0,1-29.73-13.52c-7.86-9-11.22-20.5-11.22-34.44V133h49.81V265.46c0,13.94,3.32,25.42,11.19,34.44a43.47,43.47,0,0,0,5.64,5.42Z" style="fill:#d2d2db;fill-rule:evenodd"/><g style="clip-path:url(#clip-path)"><rect x="209.51" y="129.56" width="330.98" height="240.79" style="fill:#d2d2db"/></g></svg>