<svg id="Layer_1" data-name="Layer 1" xmlns="http://www.w3.org/2000/svg" viewBox="0 0 750 500"><title>vimeo_1x</title><path d="M628.39,345.83c-13.23-.87-23.51-5-31.63-12.63a45.62,45.62,0,0,1-8.8-11.87,5.84,5.84,0,0,0-.72-1.25s-.89.49-1.87,1.1c-2.15,1.33-8.63,5.06-11.38,6.54-18.06,9.71-36.65,15.45-55.42,17.11a109.2,109.2,0,0,1-17.37.23c-9.6-.89-17.4-3.63-23.71-8.35a53.93,53.93,0,0,1-6.54-6.37,51,51,0,0,1-3.34-4.9l-.67-1.18-2,1.76c-11.15,9.6-22.72,15.6-34.19,17.73a44.06,44.06,0,0,1-15.58.3c-5.76-1.17-9.95-4.16-12.32-8.82-2.74-5.34-3.4-12.61-2.09-23.05.78-6.24,1.45-9.58,4.22-21a150.67,150.67,0,0,0,3.23-17.66,43.41,43.41,0,0,0,0-8.47c-.62-4.07-2.13-6.42-4.82-7.5a10,10,0,0,0-4.59-.15q-7.5,1.95-17.32,18.16c-9,14.89-13.95,28.86-15.29,43.21a114.09,114.09,0,0,0,.07,14.22,41.82,41.82,0,0,0,1.76,8.4l.73,2.14c.09.26,0,.27-4.49.18a73.39,73.39,0,0,1-11.5-.9c-12.37-2-19.36-7-22.42-15.88-1.84-5.35-2.34-11.12-1.73-19.71a94.24,94.24,0,0,1,3.08-18,108.5,108.5,0,0,0,3-15.5,47.44,47.44,0,0,0,.07-9c-.87-4.34-2.9-6.65-6.5-7.42a10.87,10.87,0,0,0-2.63-.16,6.62,6.62,0,0,0-2.69.5c-4.67,1.84-9.66,7.93-14.89,18.2a101.88,101.88,0,0,0-10.71,36,124.69,124.69,0,0,0,0,22.62,41.48,41.48,0,0,0,1.86,9c.11.26,0,.27-3.9.18A57.14,57.14,0,0,1,281.41,342c-6.32-1.6-11.41-4.45-14.91-8.34A28,28,0,0,1,260.87,323c-.13-.48-.27-.95-.44-1.42a10.57,10.57,0,0,0-1.38,1.16c-10.49,9.56-20,15.56-30.11,19a55.16,55.16,0,0,1-17.1,2.95c-8,0-13.68-2.76-17.4-8.4a21.35,21.35,0,0,1-3.05-7.05c-1.43-5.58-1.17-12.39.89-23,1.35-6.93,2.73-12.52,5.94-24,2.3-8.28,3.88-14.1,4.84-17.87.76-3,.81-3.26.8-4.81,0-5.1-2.1-8.05-5.64-8.1A3.49,3.49,0,0,0,196,252a45.07,45.07,0,0,0-5.91,3.82l-2.61,1.87-.39,1.16c-2.13,6.45-6.81,15.84-12.22,24.49A313.53,313.53,0,0,1,152,314.7C136.7,333,123.58,343,112,345a20.66,20.66,0,0,1-7-.05c-7.17-1.79-13.13-9-18.29-22.28-.44-1.12-2.61-9-6.75-24.33Q76.67,286,73.3,273.64c-2.08-7.25-4.82-13.9-7.2-17.5-1.84-2.77-4.14-4.58-6.08-4.77-.79-.08-.92,0-2.15.57s-5,3-8.14,5.23c-.88.62-1.68,1.17-1.78,1.23a31.92,31.92,0,0,1-3.5-4.25c-1.17-1.53-2.34-3.06-3.53-4.57-.17-.21.1-.5,2.36-2.52q7.65-6.87,15.25-13.83c6.93-6.37,10.94-9.64,15.58-12.68,5-3.25,8.09-4.49,11.77-4.65,9.26-.41,15.41,5.14,18.74,16.91.79,2.81,1.15,4.69,2.37,12.34,3.16,20,4.5,27.14,6.59,35.45,2.49,9.88,5.25,15.64,8.2,17.09a2.58,2.58,0,0,0,1.74.39c3.22-.24,7.82-5.27,14.14-15.43q7.8-12.57,9.47-20.29a17.92,17.92,0,0,0,.33-4.59,14.65,14.65,0,0,0-.25-4,8.06,8.06,0,0,0-4.26-5.44,10.9,10.9,0,0,0-5.67-1.07A25,25,0,0,0,128,249c-.91.34-1.47.48-1.49.38a20.78,20.78,0,0,1,.75-2.48,61.65,61.65,0,0,1,9.64-18.7,47.49,47.49,0,0,1,6-6.17,37.51,37.51,0,0,1,9.9-5.67c7.24-2.67,17.08-3.13,23.35-1.08,8.52,2.78,13,9.92,14,22.21l.1,1.19.67-.61,5.62-5.16c11.2-10.3,17.71-15,23.18-16.56a12.23,12.23,0,0,1,3.53-.46c6.84-.25,11.58,1.94,14.85,6.85,3,4.49,4.34,10.31,3.93,17-.11,1.91-.33,3.21-1.56,9.38-2.29,11.45-4.63,24.67-7.2,40.61-.85,5.31-.87,5.51-.79,7.41.21,4.77,1.21,7.72,3.38,9.9a7.17,7.17,0,0,0,2.16,1.61,10.68,10.68,0,0,0,6.54.74,25,25,0,0,0,5.09-2.42c3.2-1.95,10.13-7.28,10.25-7.88,0-.18.27-1.9.52-3.83s1.08-7.33,1.86-12c1.5-9,2.27-14.31,2.72-18.88a91.72,91.72,0,0,0,.55-9.38c-.2-2.52-1.83-3.85-3.88-3.19-1.42.47-4.41,2.3-8.56,5.25-1.71,1.22-2.09,1.43-2.24,1.27-.85-.9-7.82-8.94-7.81-9a6.22,6.22,0,0,1,.82-.79c1.25-1.08,7.54-7,15.1-14.08,9.24-8.71,12-11.16,15.83-14.05a26.46,26.46,0,0,1,7.08-4.14,7.28,7.28,0,0,1,2.86-.32,15.66,15.66,0,0,1,2.87.24,15.36,15.36,0,0,1,9.69,7,31.64,31.64,0,0,1,5.05,13.11,43.22,43.22,0,0,1,.08,10c-.14.77-.25,1.48-.25,1.57a5.05,5.05,0,0,0,1-1.25,67.59,67.59,0,0,1,14.66-15.26c1.62-1.24,5.34-3.71,7-4.64a57.36,57.36,0,0,1,26.34-7.54c8.43-.26,14.77,1.77,19.1,6.12a20.4,20.4,0,0,1,3.95,5.65c2,4.06,2.86,8.45,3.06,14.64l.09,3,2.52-2.21a43.67,43.67,0,0,0,4.09-4.05c1.95-2.27,5.75-6.18,8-8.27,9.19-8.41,18.91-13.19,29.5-14.53a52.47,52.47,0,0,1,9-.23q9.39.9,14.44,6.21c5.17,5.45,7.32,12.74,6.81,23.07-.37,7.41-1.51,14.32-4.61,28-3.9,17.2-4.47,20.83-4,25.52.36,3.71,1.13,5.33,3,6.35a10.41,10.41,0,0,0,5.08,1.1,6.63,6.63,0,0,0,3.3-.31,24.81,24.81,0,0,0,5.06-2.59c1.08-.7,1.32-.91,1.27-1.15a71.07,71.07,0,0,1-.33-9.11,64.6,64.6,0,0,1,7-28.07,88.17,88.17,0,0,1,11.79-17.95c14.46-17.33,31.7-28,51.09-31.71a83.55,83.55,0,0,1,24.12-1c13.05,1.68,21.21,7.33,24.85,17.19a33.61,33.61,0,0,1,2,10.66A27.16,27.16,0,0,1,579.8,256c-2.84,8.62-9.28,17.19-19.73,26.25-12.27,10.65-27.39,18.08-44.59,21.89-2.36.53-6.72,1.39-7,1.39a16.15,16.15,0,0,0,2.46,2.85,20.29,20.29,0,0,0,12.28,5.49,99.55,99.55,0,0,0,12.21-.21c13.78-1.31,27.29-5,43.16-11.81l3.24-1.39-.09-.8a78.51,78.51,0,0,1,0-14.3,68.67,68.67,0,0,1,11.38-31.15,89.64,89.64,0,0,1,8.66-11.13c7.94-8.9,15.48-14.84,24.75-19.53a77.93,77.93,0,0,1,34.53-8.27,57.41,57.41,0,0,1,13.49,1.05A41.23,41.23,0,0,1,691,223.63a47,47,0,0,1,9,9.59c6.31,8.9,9.44,20.6,9.07,34a84.31,84.31,0,0,1-7.48,33.39,86.27,86.27,0,0,1-18.86,26,69.41,69.41,0,0,1-42,19c-2.12.22-10.42.4-12.41.27Zm10.2-28.78c8.64-1.05,16.28-7,22.8-17.91,6.68-11.12,10-23,9.67-34.69a39.58,39.58,0,0,0-2-12.22c-1.2-3.59-2.42-5.76-4.06-7.23s-3.32-2-6.63-1.72A27,27,0,0,0,648.06,246c-6.09,3-11.14,8-15.86,15.84a67.74,67.74,0,0,0-10.06,31.76,30.19,30.19,0,0,0,3,16c1.67,3.35,3.84,5.72,6.19,6.77a14.5,14.5,0,0,0,7.3.68Zm-133.46-25.2c13.3-5.32,25.33-14.73,32.43-25.39a24.51,24.51,0,0,0,4.05-9.12,15.62,15.62,0,0,0-.21-5,8.39,8.39,0,0,0-1.51-3.1,6.74,6.74,0,0,0-2.76-1.71,15.44,15.44,0,0,0-5.5-.13c-5.93,1.26-11.78,5.8-17.66,13.73-6.39,8.62-9.88,16.75-10.68,24.89-.21,2.1-.2,6.48,0,6.48a18.41,18.41,0,0,0,1.83-.66ZM220.26,196a23.31,23.31,0,0,1-8.8-2.46,15.67,15.67,0,0,1-3.84-3.42,14.88,14.88,0,0,1-2.44-6.23,26.22,26.22,0,0,1,.08-7.46c.76-3.75,2.8-7.29,6.27-10.88C218,158.89,225.66,155,234,154.25c5.14-.47,8.85.38,12,2.75a20.2,20.2,0,0,1,6.71,9.57,17.24,17.24,0,0,1,.28,6.73c-.81,4.83-3.51,9.41-8.23,14a29.13,29.13,0,0,1-16.83,8.52A44.73,44.73,0,0,1,220.26,196Z" style="fill:#d2d2db"/></svg>