<svg id="Layer_1" data-name="Layer 1" xmlns="http://www.w3.org/2000/svg" viewBox="0 0 750 500"><title>zillow</title><path d="M147.87,185.64c-9.46,4.37-36.67,25.23-51.31,36.19,17.82-5.91,60.68-15.35,82.62-15.86-6.85-4.81-26.11-17.8-31.31-20.33Z" style="fill:#d2d2db;fill-rule:evenodd"/><path d="M62.32,320.36c6-2.65,63.34-21.58,116-24.72,1.14-4.41,6.93-19.18,8-23.21-54.68,3.88-99.11,20.08-117,28.29l-7,19.64Z" style="fill:#d2d2db;fill-rule:evenodd"/><path d="M183.28,208.81s-53.19,53.06-61.51,60.67c16.17-5.81,49.31-12.7,70.34-13.94a116.28,116.28,0,0,1,5-12.78L225.29,240s-21.39-17.18-42-31.16Z" style="fill:#d2d2db;fill-rule:evenodd"/><path d="M71.43,295c16.77-17.13,77-72.36,77-72.36-31.35,7.27-64.08,17.14-75.78,22.42l-17.59,18c14.69-3.12,19.44-3.73,30.19-5.3L71.43,295Z" style="fill:#d2d2db;fill-rule:evenodd"/><path d="M303.93,313.42H229V296.5l45.3-77.81a84.86,84.86,0,0,0,5-9.8s-2.63-.21-9.88-.21h-37l5.36-20h71.83v17.44L264,286c-2.59,4.32-4.48,7.81-4.48,7.81s5.34,0,10.18,0h40.41l-6.22,19.68Zm33.63-87.85a14.26,14.26,0,0,1-14.16-14.33,14.45,14.45,0,0,1,14.5-14.34,14.13,14.13,0,0,1,14,14.34,14.3,14.3,0,0,1-14.33,14.33ZM326,313.6l0-77.75,23.05-5.17.05,82.92Zm45.89-.24h23.66l-.17-127.72L371.72,191l.16,122.37Zm46,0h23.66l-.17-127.72L417.69,191l.17,122.37Zm222.1.06H618.72L610.78,283c-1.9-7.08-4-15.54-5-21.41-.69-4.15-.87-5.36-1.39-8.81a113.21,113.21,0,0,1-2.07,11.4c-1.73,7.6-5.53,22.8-7.6,31.08l-4.49,18.13H568.65L544,225h23.62l7.05,33c2.24,10.19,5,27.46,5,27.46a285,285,0,0,1,6.39-30.74l8.29-29.7h21.76l7.07,29.19c4,16.4,6.56,31.25,6.56,31.25.53-3.8,2.43-17.62,4.84-28.84l6.73-31.6h23.83L640,313.42ZM509.09,245a12.37,12.37,0,0,0-10-4.66c-5.53,0-10,3.46-11.91,9-1.55,4.66-2.42,10.88-2.42,19.68,0,10.19,1,17.79,2.93,22.28,2.08,4.84,7.26,7.26,11.74,7.26,10,0,14.34-9,14.34-29.88,0-11.92-1.56-19.69-4.67-23.66Zm18.83,58c-6.74,7.6-15.55,12.26-29.19,12.26-24,0-39.71-17.95-39.71-45.75s15.88-46.29,39.71-46.29c12.61,0,22.45,4.32,30,13.3,7.09,8.3,10.19,18,10.19,32.29,0,15.2-3.45,25.56-11.05,34.19Z" style="fill:#d2d2db;fill-rule:evenodd"/><path d="M682.33,207.69v4h1.08c1.08,0,1.64-.15,2-.54a2,2,0,0,0,.58-1.5c0-1.25-.69-1.92-2.53-1.92Zm4,10.79-1.08-1.95a13.49,13.49,0,0,0-2.12-3.05,1.11,1.11,0,0,0-.81-.39v5.39h-2V206h3.8c2.78,0,4,1.62,4,3.57a3.15,3.15,0,0,1-3.09,3.41,9.67,9.67,0,0,1,1.92,2.48l1.83,3ZM683.86,203a9.34,9.34,0,1,0,8.89,9.31,9,9,0,0,0-8.89-9.31Zm0,20.45a11.14,11.14,0,1,1,11-11.14,11,11,0,0,1-11,11.14Z" style="fill:#d2d2db"/></svg>