<svg id="Layer_1" data-name="Layer 1" xmlns="http://www.w3.org/2000/svg" viewBox="0 0 150 150"><defs><style>.cls-1{fill:#fff;}</style></defs><title>behance-icon</title><path class="cls-1" d="M62,70.49s12.74-.95,12.74-15.89S64.33,32.35,51.12,32.35H7.66v83.52H51.12s26.53.84,26.53-24.65C77.66,91.22,78.81,70.49,62,70.49ZM26.81,47.2H51.12S57,47.2,57,55.89s-3.48,9.95-7.41,9.95H26.81ZM50,101H26.81V78.71H51.12s8.81-.12,8.81,11.47C59.93,99.84,53.49,100.94,50,101Z"/><path class="cls-1" d="M113,53.6C80.92,53.6,81,85.69,81,85.69s-2.2,31.93,32.09,31.93c0,0,28.58,1.63,28.58-22.21h-14.7s.49,9-13.39,9c0,0-14.7,1-14.7-14.53h43.28S146.85,53.6,113,53.6Zm13.06,25.11H98.67s1.8-12.87,14.7-12.87S126.11,78.71,126.11,78.71Z"/><rect class="cls-1" x="95.07" y="37.12" width="34.46" height="8.42"/></svg>