<svg id="Layer_1" data-name="Layer 1" xmlns="http://www.w3.org/2000/svg" viewBox="0 0 150 150"><defs><style>.cls-1{fill:#fff;fill-rule:evenodd;}</style></defs><title>github-icon</title><path class="cls-1" d="M75,9.32A67.34,67.34,0,0,0,53.72,140.56c3.37.62,4.6-1.46,4.6-3.25,0-1.6-.06-5.83-.09-11.45-18.73,4.07-22.68-9-22.68-9-3.06-7.78-7.48-9.85-7.48-9.85-6.11-4.18.46-4.09.46-4.09,6.76.48,10.31,6.94,10.31,6.94,6,10.29,15.76,7.32,19.6,5.6.61-4.35,2.35-7.32,4.28-9C47.76,104.72,32,98.95,32,73.14A26,26,0,0,1,39,55.07c-.69-1.7-3-8.55.66-17.82,0,0,5.65-1.81,18.52,6.9a63.83,63.83,0,0,1,33.72,0c12.86-8.71,18.5-6.9,18.5-6.9,3.67,9.27,1.36,16.12.67,17.82A26,26,0,0,1,118,73.14c0,25.87-15.74,31.56-30.75,33.23,2.42,2.08,4.57,6.19,4.57,12.47,0,9-.08,16.26-.08,18.47,0,1.8,1.21,3.9,4.63,3.24A67.35,67.35,0,0,0,75,9.32Z"/></svg>