<svg id="Layer_1" data-name="Layer 1" xmlns="http://www.w3.org/2000/svg" viewBox="0 0 150 150"><defs><style>.cls-1{fill:#fff;}</style></defs><title>medium-icon</title><path class="cls-1" d="M141.93,38.86l-.08-.06,0,0L101.18,18.46a4.27,4.27,0,0,0-.86-.31A4.51,4.51,0,0,0,99.2,18a4.65,4.65,0,0,0-3.94,2.14l-23.39,38,29.35,47.7,40.83-66.34A.49.49,0,0,0,141.93,38.86Z"/><polygon class="cls-1" points="58.99 49.5 58.99 92.77 97.45 112 58.99 49.5"/><path class="cls-1" d="M103.22,114.88l31.66,15.83c4.12,2.06,7.46.62,7.46-3.22V51.32Z"/><path class="cls-1" d="M52.31,38.92,12.63,19.09a4.55,4.55,0,0,0-2-.53c-1.74,0-3,1.34-3,3.6v85.67a7.41,7.41,0,0,0,3.73,6l34.95,17.47a5.68,5.68,0,0,0,2.52.66c2.17,0,3.7-1.68,3.7-4.5V39.32A.44.44,0,0,0,52.31,38.92Z"/></svg>